<svg id="svg" version="1.1" width="400" height="400" xmlns="http://www.w3.org/2000/svg" xmlns:xlink="http://www.w3.org/1999/xlink" style="display: block;"><g id="svgg"><path id="path0" d="M194.006 62.700 C 194.010 63.132,194.125 63.231,194.306 62.960 C 194.468 62.718,194.870 62.417,195.200 62.292 C 195.601 62.139,195.501 62.053,194.900 62.032 C 194.295 62.010,194.002 62.230,194.006 62.700 M206.546 62.602 C 208.009 63.365,208.839 63.356,207.824 62.587 C 207.396 62.264,206.676 62.001,206.224 62.002 C 205.535 62.005,205.587 62.103,206.546 62.602 M189.300 63.465 C 189.025 63.576,188.800 63.950,188.800 64.295 C 188.800 64.866,188.865 64.866,189.500 64.298 C 189.885 63.954,190.650 63.591,191.200 63.491 C 192.086 63.330,192.063 63.306,191.000 63.286 C 190.340 63.273,189.575 63.354,189.300 63.465 M210.600 63.470 C 211.260 63.569,212.041 63.954,212.336 64.325 C 212.828 64.945,212.860 64.934,212.733 64.200 C 212.623 63.569,212.257 63.388,210.997 63.345 C 209.872 63.306,209.754 63.343,210.600 63.470 M215.823 65.367 C 216.661 65.980,217.040 65.913,216.616 65.227 C 216.471 64.992,216.059 64.800,215.700 64.800 C 215.154 64.800,215.174 64.893,215.823 65.367 M183.055 66.600 C 182.929 66.930,182.369 67.200,181.813 67.200 C 181.256 67.200,180.800 67.367,180.800 67.572 C 180.800 67.802,181.297 67.802,182.097 67.572 C 182.811 67.367,183.422 67.200,183.455 67.200 C 183.487 67.200,183.618 66.930,183.745 66.600 C 183.871 66.270,183.820 66.000,183.630 66.000 C 183.441 66.000,183.182 66.270,183.055 66.600 M218.509 66.800 C 219.069 67.240,219.794 67.600,220.120 67.600 C 220.447 67.600,220.818 67.870,220.945 68.200 C 221.235 68.956,222.000 68.987,222.000 68.243 C 222.000 67.631,221.159 67.200,219.967 67.200 C 219.545 67.200,219.200 66.930,219.200 66.600 C 219.200 66.254,218.838 66.000,218.346 66.000 C 217.528 66.000,217.535 66.034,218.509 66.800 M175.600 70.600 C 175.600 70.933,175.244 71.200,174.800 71.200 C 174.293 71.200,174.012 71.456,174.032 71.900 C 174.050 72.318,174.144 72.399,174.265 72.100 C 174.376 71.825,174.702 71.600,174.989 71.600 C 175.276 71.600,175.936 71.246,176.456 70.813 L 177.400 70.027 176.500 70.013 C 175.961 70.005,175.600 70.241,175.600 70.600 M225.493 70.800 C 225.870 71.240,226.349 71.600,226.557 71.600 C 226.766 71.600,227.266 71.898,227.669 72.262 C 228.321 72.852,228.400 72.856,228.400 72.294 C 228.400 71.919,227.914 71.557,227.200 71.400 C 226.540 71.255,226.000 70.881,226.000 70.568 C 226.000 70.256,225.732 70.000,225.404 70.000 C 224.905 70.000,224.920 70.131,225.493 70.800 M171.384 73.227 C 170.915 73.986,171.599 74.173,172.295 73.476 C 172.919 72.853,172.920 72.800,172.309 72.800 C 171.945 72.800,171.529 72.992,171.384 73.227 M231.544 74.813 C 232.064 75.246,232.724 75.600,233.011 75.600 C 233.298 75.600,233.624 75.825,233.735 76.100 C 233.893 76.492,233.944 76.489,233.968 76.087 C 233.986 75.806,233.685 75.459,233.300 75.318 C 232.915 75.176,232.456 74.822,232.280 74.530 C 232.104 74.239,231.654 74.006,231.280 74.013 C 230.726 74.024,230.775 74.172,231.544 74.813 M168.300 75.476 C 167.446 75.699,167.363 76.800,168.200 76.800 C 168.530 76.800,168.800 76.543,168.800 76.229 C 168.800 75.915,169.115 75.576,169.500 75.476 C 169.952 75.358,169.988 75.293,169.600 75.293 C 169.270 75.293,168.685 75.375,168.300 75.476 M235.200 77.400 C 235.200 77.730,235.470 78.000,235.800 78.000 C 236.130 78.000,236.400 77.730,236.400 77.400 C 236.400 77.070,236.130 76.800,235.800 76.800 C 235.470 76.800,235.200 77.070,235.200 77.400 M237.493 78.800 C 237.870 79.240,238.408 79.600,238.689 79.600 C 238.970 79.600,239.200 79.870,239.200 80.200 C 239.200 80.530,239.470 80.800,239.800 80.800 C 240.130 80.800,240.400 81.010,240.400 81.267 C 240.400 81.523,240.505 81.629,240.632 81.501 C 241.080 81.054,239.968 79.607,238.988 79.361 C 238.445 79.225,238.000 78.863,238.000 78.557 C 238.000 78.250,237.732 78.000,237.404 78.000 C 236.905 78.000,236.920 78.131,237.493 78.800 M162.700 79.476 C 162.315 79.576,162.000 79.915,162.000 80.229 C 162.000 80.952,162.660 80.970,163.080 80.259 C 163.256 79.961,163.670 79.615,164.000 79.490 C 164.770 79.199,163.801 79.188,162.700 79.476 M240.454 83.300 C 240.420 83.987,240.175 84.400,239.800 84.400 C 239.470 84.400,239.200 84.670,239.200 85.000 C 239.200 85.330,239.374 85.600,239.586 85.600 C 240.194 85.600,240.867 84.047,240.680 83.079 C 240.538 82.351,240.500 82.388,240.454 83.300 M162.013 84.880 C 162.006 85.254,162.229 85.704,162.508 85.880 C 162.788 86.056,163.234 86.695,163.500 87.300 C 164.019 88.482,164.800 88.782,164.800 87.800 C 164.800 87.470,164.530 87.200,164.200 87.200 C 163.870 87.200,163.600 86.950,163.600 86.644 C 163.600 85.766,162.030 84.021,162.013 84.880 M236.446 91.080 C 236.421 91.564,236.085 92.144,235.700 92.368 C 235.037 92.754,235.037 92.776,235.713 92.788 C 236.528 92.802,236.954 91.980,236.680 90.923 C 236.529 90.338,236.484 90.368,236.446 91.080 M167.260 94.000 C 167.168 95.125,167.692 96.400,168.247 96.400 C 168.551 96.400,168.800 96.130,168.800 95.800 C 168.800 95.470,168.543 95.200,168.228 95.200 C 167.913 95.200,167.578 94.795,167.482 94.300 C 167.387 93.805,167.287 93.670,167.260 94.000 M233.272 98.025 C 232.982 98.494,232.850 98.983,232.979 99.112 C 233.365 99.499,234.085 98.535,233.938 97.829 C 233.822 97.280,233.714 97.312,233.272 98.025 M232.470 101.451 C 232.431 102.359,232.130 103.326,231.800 103.600 C 231.035 104.235,231.021 106.553,231.778 107.181 C 232.095 107.445,232.425 108.322,232.510 109.130 C 232.656 110.509,232.669 110.489,232.727 108.800 C 232.760 107.810,232.631 106.753,232.440 106.451 C 232.240 106.136,232.252 105.320,232.468 104.538 C 232.675 103.788,232.776 102.415,232.692 101.487 L 232.540 99.800 232.470 101.451 M169.228 110.966 C 168.596 111.728,168.785 112.104,169.560 111.625 C 169.856 111.442,170.024 111.072,169.934 110.802 C 169.818 110.454,169.614 110.501,169.228 110.966 M232.800 111.918 C 232.800 112.129,233.091 112.543,233.446 112.838 C 234.005 113.302,234.073 113.273,233.946 112.620 C 233.795 111.843,232.800 111.233,232.800 111.918 M167.443 114.633 C 167.309 114.981,167.200 115.611,167.200 116.033 C 167.200 116.455,166.930 116.800,166.600 116.800 C 166.254 116.800,166.000 117.162,166.000 117.654 C 166.000 118.472,166.034 118.465,166.800 117.491 C 167.240 116.931,167.600 116.206,167.600 115.880 C 167.600 115.553,167.870 115.182,168.200 115.055 C 168.530 114.929,168.800 114.639,168.800 114.413 C 168.800 113.758,167.711 113.934,167.443 114.633 M235.854 118.306 C 236.103 118.468,236.397 118.960,236.507 119.400 C 236.661 120.013,236.718 119.943,236.754 119.100 C 236.787 118.299,236.610 118.002,236.100 118.006 C 235.656 118.010,235.566 118.120,235.854 118.306 M164.938 119.817 C 164.578 120.755,164.967 120.866,165.519 119.982 C 165.828 119.487,165.854 119.200,165.591 119.200 C 165.362 119.200,165.068 119.478,164.938 119.817 M163.350 122.587 C 163.226 122.910,163.217 123.405,163.331 123.687 C 163.444 123.969,163.551 123.810,163.568 123.333 C 163.586 122.857,163.825 122.376,164.100 122.265 C 164.492 122.107,164.489 122.056,164.087 122.032 C 163.806 122.014,163.474 122.264,163.350 122.587 M238.000 122.318 C 238.000 122.529,238.291 122.943,238.646 123.238 C 239.205 123.702,239.273 123.673,239.146 123.020 C 238.995 122.243,238.000 121.633,238.000 122.318 M239.700 125.205 C 240.085 125.444,240.400 125.951,240.400 126.331 C 240.400 126.711,240.760 127.330,241.200 127.707 C 241.640 128.084,242.000 128.223,242.000 128.016 C 242.000 127.809,241.747 127.496,241.438 127.320 C 241.130 127.144,240.815 126.552,240.738 126.004 C 240.651 125.375,240.305 124.964,239.800 124.889 C 239.069 124.781,239.060 124.808,239.700 125.205 M161.067 126.267 C 160.468 126.866,160.773 127.720,161.400 127.200 C 161.730 126.926,162.000 126.544,162.000 126.351 C 162.000 125.937,161.447 125.887,161.067 126.267 M159.200 129.351 C 159.200 129.654,158.930 130.126,158.600 130.400 C 158.270 130.674,158.000 131.056,158.000 131.249 C 158.000 131.442,158.270 131.600,158.600 131.600 C 158.930 131.600,159.200 131.554,159.200 131.497 C 159.200 131.441,159.367 130.811,159.572 130.097 C 159.802 129.297,159.802 128.800,159.572 128.800 C 159.367 128.800,159.200 129.048,159.200 129.351 M242.092 129.275 C 242.339 130.017,243.200 130.140,243.200 129.433 C 243.200 129.085,242.915 128.800,242.567 128.800 C 242.218 128.800,242.005 129.014,242.092 129.275 M243.700 131.476 C 244.085 131.576,244.400 131.840,244.400 132.062 C 244.400 132.284,245.030 133.234,245.800 134.174 C 246.570 135.114,247.200 136.089,247.200 136.341 C 247.200 136.594,247.405 136.800,247.656 136.800 C 247.907 136.800,248.351 137.115,248.644 137.500 C 249.094 138.092,249.102 137.999,248.700 136.900 C 248.439 136.185,247.994 135.600,247.712 135.600 C 247.431 135.600,247.200 135.324,247.200 134.987 C 247.200 134.651,246.930 134.271,246.600 134.145 C 246.270 134.018,246.000 133.664,246.000 133.357 C 246.000 133.051,245.751 132.800,245.447 132.800 C 245.142 132.800,244.799 132.440,244.684 132.000 C 244.563 131.538,244.163 131.220,243.737 131.246 C 243.068 131.289,243.064 131.310,243.700 131.476 M154.900 134.963 C 154.405 135.485,154.000 136.112,154.000 136.356 C 154.000 136.600,153.730 136.800,153.400 136.800 C 153.070 136.800,152.800 137.070,152.800 137.400 C 152.800 137.730,152.575 138.003,152.300 138.007 C 151.648 138.016,149.816 139.949,150.146 140.279 C 150.286 140.419,150.400 140.323,150.400 140.067 C 150.400 139.810,150.580 139.600,150.800 139.600 C 151.187 139.600,152.207 138.801,153.550 137.443 C 155.701 135.270,156.712 134.001,156.287 134.007 C 156.019 134.011,155.395 134.441,154.900 134.963 M251.000 139.369 C 251.880 140.115,252.675 140.652,252.767 140.563 C 253.064 140.272,250.618 138.022,250.000 138.017 C 249.667 138.014,250.112 138.616,251.000 139.369 M147.600 141.449 C 147.600 141.980,147.709 142.008,148.200 141.600 C 148.530 141.326,148.800 141.034,148.800 140.951 C 148.800 140.868,148.530 140.800,148.200 140.800 C 147.870 140.800,147.600 141.092,147.600 141.449 M255.823 142.567 C 256.661 143.180,257.040 143.113,256.616 142.427 C 256.471 142.192,256.059 142.000,255.700 142.000 C 255.154 142.000,255.174 142.093,255.823 142.567 M143.100 143.632 C 142.242 144.132,142.185 144.800,143.000 144.800 C 143.330 144.800,143.600 144.543,143.600 144.228 C 143.600 143.913,144.005 143.578,144.500 143.482 C 145.271 143.334,145.286 143.303,144.600 143.267 C 144.160 143.243,143.485 143.408,143.100 143.632 M257.200 143.353 C 257.200 143.438,257.650 143.593,258.200 143.698 C 258.750 143.803,259.200 143.734,259.200 143.545 C 259.200 143.355,258.750 143.200,258.200 143.200 C 257.650 143.200,257.200 143.269,257.200 143.353 M132.800 146.600 C 132.800 147.340,132.840 147.340,134.254 146.602 L 135.400 146.005 134.100 146.002 C 133.210 146.001,132.800 146.189,132.800 146.600 M268.560 146.610 C 269.763 147.237,270.272 147.163,269.816 146.427 C 269.671 146.192,269.068 146.001,268.476 146.002 L 267.400 146.005 268.560 146.610 M119.810 147.848 C 118.987 148.671,119.357 149.100,120.249 148.357 C 120.656 148.018,122.345 147.710,124.559 147.570 L 128.200 147.340 124.329 147.270 C 121.228 147.214,120.328 147.329,119.810 147.848 M278.241 147.570 C 280.426 147.708,282.145 148.019,282.541 148.349 C 283.104 148.818,283.200 148.810,283.200 148.296 C 283.200 147.451,281.926 147.201,278.000 147.276 L 274.600 147.340 278.241 147.570 M107.137 149.235 C 106.673 150.358,107.359 152.582,108.216 152.734 C 108.940 152.861,108.948 152.831,108.320 152.336 C 107.934 152.032,107.589 151.109,107.520 150.200 C 107.447 149.224,107.298 148.848,107.137 149.235 M291.600 154.651 C 289.730 156.484,287.975 157.988,287.700 157.992 C 287.425 157.996,287.200 158.264,287.200 158.587 C 287.200 158.945,287.435 159.085,287.800 158.945 C 288.130 158.818,288.400 158.575,288.400 158.404 C 288.400 158.233,288.760 157.999,289.200 157.884 C 289.640 157.769,290.000 157.388,290.000 157.037 C 290.000 156.687,290.270 156.400,290.600 156.400 C 290.930 156.400,291.200 156.130,291.200 155.800 C 291.200 155.470,291.372 155.200,291.583 155.200 C 292.165 155.200,295.302 152.098,295.141 151.682 C 295.063 151.481,293.470 152.817,291.600 154.651 M200.400 153.200 C 200.110 153.742,200.105 154.000,200.386 154.000 C 200.614 154.000,200.800 153.743,200.800 153.429 C 200.800 153.115,201.115 152.776,201.500 152.676 C 202.146 152.507,202.147 152.489,201.514 152.446 C 201.137 152.421,200.635 152.760,200.400 153.200 M202.013 154.080 C 202.006 154.454,202.239 154.904,202.530 155.080 C 202.822 155.256,203.176 155.715,203.318 156.100 C 203.459 156.485,203.851 156.800,204.187 156.800 C 204.734 156.800,204.734 156.725,204.179 156.100 C 203.838 155.715,203.214 154.950,202.793 154.400 C 202.192 153.615,202.024 153.546,202.013 154.080 M111.200 155.813 C 111.200 156.149,111.478 156.532,111.817 156.662 C 112.721 157.009,112.769 156.698,111.933 155.900 C 111.313 155.308,111.200 155.294,111.200 155.813 M198.400 155.800 C 197.992 156.291,198.020 156.400,198.551 156.400 C 198.908 156.400,199.200 156.130,199.200 155.800 C 199.200 155.470,199.132 155.200,199.049 155.200 C 198.966 155.200,198.674 155.470,198.400 155.800 M197.058 157.597 C 196.650 158.010,196.410 158.584,196.526 158.874 C 196.665 159.220,196.748 159.160,196.768 158.700 C 196.786 158.315,197.070 158.000,197.400 158.000 C 197.730 158.000,198.000 157.730,198.000 157.400 C 198.000 156.664,197.977 156.668,197.058 157.597 M112.800 157.576 C 112.800 157.809,113.070 158.000,113.400 158.000 C 113.730 158.000,114.000 158.270,114.000 158.600 C 114.000 158.930,114.207 159.200,114.460 159.200 C 114.712 159.200,115.531 159.830,116.279 160.600 C 117.027 161.370,117.819 162.000,118.039 162.000 C 118.749 162.000,117.858 160.934,115.800 159.323 C 113.231 157.311,112.800 157.060,112.800 157.576 M206.000 159.800 C 206.000 160.130,206.249 160.400,206.553 160.400 C 206.858 160.400,207.201 160.760,207.316 161.200 C 207.431 161.640,207.767 161.997,208.063 161.994 C 208.396 161.990,208.445 161.876,208.192 161.694 C 207.967 161.532,207.566 160.905,207.300 160.300 C 206.781 159.118,206.000 158.818,206.000 159.800 M285.295 160.266 C 284.602 160.546,283.839 162.000,284.386 162.000 C 284.614 162.000,284.800 161.730,284.800 161.400 C 284.800 161.070,285.070 160.800,285.400 160.800 C 285.730 160.800,286.000 160.620,286.000 160.400 C 286.000 160.180,285.955 160.014,285.900 160.032 C 285.845 160.049,285.573 160.155,285.295 160.266 M194.538 160.856 C 193.671 161.947,193.162 163.200,193.586 163.200 C 193.814 163.200,194.000 162.995,194.000 162.744 C 194.000 162.493,194.295 162.073,194.655 161.809 C 195.015 161.546,195.234 161.101,195.140 160.821 C 195.006 160.419,194.880 160.427,194.538 160.856 M192.400 163.704 C 192.400 164.055,192.085 164.424,191.700 164.524 C 191.044 164.696,191.045 164.710,191.713 164.754 C 192.436 164.801,193.106 163.773,192.649 163.316 C 192.512 163.179,192.400 163.353,192.400 163.704 M281.150 163.933 C 280.793 164.245,280.118 164.838,279.650 165.250 C 279.183 165.663,278.639 166.000,278.443 166.000 C 278.246 166.000,277.982 166.270,277.855 166.600 C 277.729 166.930,277.777 167.200,277.964 167.200 C 278.150 167.200,278.526 166.930,278.800 166.600 C 279.074 166.270,279.447 166.000,279.628 166.000 C 280.154 166.000,282.093 164.071,281.939 163.701 C 281.863 163.517,281.507 163.622,281.150 163.933 M121.300 164.676 C 121.685 164.776,122.000 165.115,122.000 165.429 C 122.000 165.743,122.270 166.000,122.600 166.000 C 122.930 166.000,123.200 166.186,123.200 166.413 C 123.200 166.639,123.501 166.941,123.869 167.082 C 124.238 167.223,124.868 167.668,125.269 168.069 C 125.671 168.471,126.270 168.800,126.600 168.800 C 126.930 168.800,127.200 169.070,127.200 169.400 C 127.200 169.730,127.386 170.000,127.614 170.000 C 127.895 170.000,127.890 169.742,127.600 169.200 C 127.365 168.760,126.908 168.400,126.586 168.400 C 126.264 168.400,126.000 168.130,126.000 167.800 C 126.000 167.470,125.813 167.200,125.584 167.200 C 125.056 167.200,122.704 165.562,122.280 164.900 C 122.104 164.625,121.654 164.421,121.280 164.446 C 120.661 164.489,120.663 164.509,121.300 164.676 M210.010 164.800 C 210.014 165.485,211.829 167.341,212.294 167.136 C 212.463 167.061,212.017 166.370,211.303 165.600 C 210.511 164.744,210.008 164.433,210.010 164.800 M190.500 165.893 C 190.225 165.989,190.000 166.322,190.000 166.633 C 190.000 166.945,189.671 167.529,189.269 167.931 C 188.373 168.827,187.887 170.000,188.413 170.000 C 188.626 170.000,188.800 169.749,188.800 169.443 C 188.800 169.136,189.070 168.782,189.400 168.655 C 189.730 168.529,190.000 168.214,190.000 167.957 C 190.000 167.699,190.295 167.273,190.655 167.009 C 191.390 166.472,191.273 165.625,190.500 165.893 M276.400 167.704 C 276.400 168.055,276.085 168.424,275.700 168.524 C 275.044 168.696,275.045 168.710,275.713 168.754 C 276.436 168.801,277.106 167.773,276.649 167.316 C 276.512 167.179,276.400 167.353,276.400 167.704 M214.000 169.813 C 214.000 170.293,216.106 172.800,216.509 172.800 C 216.737 172.800,216.626 172.471,216.262 172.069 C 215.898 171.666,215.600 171.133,215.600 170.883 C 215.600 170.633,215.240 170.235,214.800 170.000 C 214.360 169.765,214.000 169.680,214.000 169.813 M272.800 170.600 C 272.384 171.101,272.442 171.200,273.151 171.200 C 273.639 171.200,274.000 170.945,274.000 170.600 C 274.000 170.270,273.842 170.000,273.649 170.000 C 273.456 170.000,273.074 170.270,272.800 170.600 M130.000 171.757 C 130.000 172.317,131.905 173.028,132.314 172.619 C 132.435 172.499,132.253 172.400,131.909 172.400 C 131.566 172.400,131.182 172.130,131.055 171.800 C 130.765 171.045,130.000 171.013,130.000 171.757 M186.000 171.738 C 186.000 172.034,185.658 172.586,185.240 172.964 C 184.399 173.725,183.869 175.200,184.437 175.200 C 184.637 175.200,184.800 174.949,184.800 174.643 C 184.800 174.336,185.070 173.982,185.400 173.855 C 185.730 173.729,186.000 173.349,186.000 173.013 C 186.000 172.676,186.161 172.400,186.357 172.400 C 186.554 172.400,186.818 172.130,186.945 171.800 C 187.085 171.435,186.945 171.200,186.587 171.200 C 186.264 171.200,186.000 171.442,186.000 171.738 M269.720 172.910 C 269.544 173.190,268.864 173.761,268.208 174.179 C 267.416 174.684,267.200 175.000,267.563 175.121 C 267.864 175.221,268.274 175.010,268.475 174.652 C 268.676 174.293,269.101 174.000,269.420 174.000 C 269.739 174.000,270.000 173.743,270.000 173.429 C 270.000 173.115,270.315 172.776,270.700 172.676 C 271.337 172.509,271.339 172.489,270.720 172.446 C 270.346 172.421,269.896 172.629,269.720 172.910 M219.200 176.208 C 219.200 176.538,219.560 177.116,220.000 177.493 C 220.440 177.870,220.800 178.408,220.800 178.689 C 220.800 178.970,221.083 179.200,221.429 179.200 C 222.000 179.200,222.000 179.143,221.429 178.571 C 221.083 178.226,220.800 177.726,220.800 177.460 C 220.800 177.195,220.440 176.670,220.000 176.293 C 219.327 175.716,219.200 175.703,219.200 176.208 M265.600 175.933 C 265.600 176.190,265.350 176.400,265.044 176.400 C 264.739 176.400,264.064 176.754,263.544 177.187 L 262.600 177.973 263.500 177.987 C 264.039 177.995,264.400 177.759,264.400 177.400 C 264.400 177.070,264.659 176.800,264.976 176.800 C 265.629 176.800,266.204 176.071,265.840 175.707 C 265.708 175.575,265.600 175.677,265.600 175.933 M137.300 176.676 C 137.685 176.776,138.000 177.115,138.000 177.429 C 138.000 177.743,138.268 178.000,138.596 178.000 C 139.095 178.000,139.080 177.869,138.507 177.200 C 138.130 176.760,137.547 176.421,137.211 176.446 C 136.756 176.481,136.778 176.539,137.300 176.676 M181.146 178.100 C 179.738 179.259,177.926 182.000,178.566 182.000 C 178.915 182.000,179.200 181.739,179.200 181.420 C 179.200 181.101,179.425 180.696,179.700 180.520 C 180.197 180.202,182.147 177.600,181.888 177.600 C 181.814 177.600,181.480 177.825,181.146 178.100 M139.692 178.475 C 139.939 179.217,140.800 179.340,140.800 178.633 C 140.800 178.285,140.515 178.000,140.167 178.000 C 139.818 178.000,139.605 178.214,139.692 178.475 M142.068 179.800 C 142.158 180.316,142.562 180.632,143.204 180.690 C 143.752 180.739,143.930 180.673,143.600 180.543 C 143.270 180.414,142.759 180.014,142.464 179.654 C 141.979 179.062,141.941 179.076,142.068 179.800 M259.600 179.800 C 259.326 180.130,258.894 180.400,258.640 180.400 C 258.386 180.400,257.870 180.760,257.493 181.200 C 256.920 181.869,256.905 182.000,257.404 182.000 C 257.732 182.000,258.000 181.730,258.000 181.400 C 258.000 181.041,258.369 180.800,258.920 180.800 C 259.830 180.800,260.800 180.139,260.800 179.520 C 260.800 178.999,260.136 179.154,259.600 179.800 M222.000 179.954 C 222.000 180.213,222.270 180.529,222.600 180.655 C 222.930 180.782,223.200 181.136,223.200 181.443 C 223.200 181.749,223.380 182.000,223.600 182.000 C 224.202 182.000,224.096 181.745,223.000 180.562 C 222.450 179.969,222.000 179.695,222.000 179.954 M195.232 181.300 C 195.214 181.685,194.930 182.000,194.600 182.000 C 194.270 182.000,194.000 182.251,194.000 182.557 C 194.000 182.864,193.730 183.218,193.400 183.345 C 193.070 183.471,192.800 183.851,192.800 184.187 C 192.800 184.524,192.530 184.800,192.200 184.800 C 191.870 184.800,191.600 184.965,191.600 185.167 C 191.600 185.369,191.481 185.864,191.337 186.267 C 191.192 186.670,191.864 186.010,192.831 184.800 C 193.798 183.590,194.841 182.404,195.149 182.165 C 195.458 181.926,195.610 181.476,195.487 181.165 C 195.322 180.749,195.255 180.784,195.232 181.300 M146.000 182.600 C 146.000 182.930,146.292 183.200,146.649 183.200 C 147.180 183.200,147.208 183.091,146.800 182.600 C 146.526 182.270,146.234 182.000,146.151 182.000 C 146.068 182.000,146.000 182.270,146.000 182.600 M255.200 182.633 C 255.200 183.340,256.061 183.217,256.308 182.475 C 256.395 182.214,256.182 182.000,255.833 182.000 C 255.485 182.000,255.200 182.285,255.200 182.633 M127.467 183.467 C 127.320 183.613,127.205 184.018,127.212 184.367 C 127.222 184.903,127.287 184.893,127.632 184.300 C 128.050 183.583,129.600 183.314,129.600 183.958 C 129.600 184.155,130.320 184.673,131.200 185.108 C 132.080 185.543,132.800 185.737,132.800 185.537 C 132.800 185.338,132.499 185.059,132.131 184.918 C 131.762 184.777,131.132 184.332,130.731 183.931 C 130.019 183.219,128.001 182.932,127.467 183.467 M176.400 183.704 C 176.400 184.055,176.085 184.424,175.700 184.524 C 175.044 184.696,175.045 184.710,175.713 184.754 C 176.436 184.801,177.106 183.773,176.649 183.316 C 176.512 183.179,176.400 183.353,176.400 183.704 M253.474 183.752 C 253.350 184.074,252.833 184.417,252.324 184.515 C 251.511 184.670,251.533 184.698,252.513 184.746 C 253.528 184.795,254.430 183.897,253.899 183.365 C 253.789 183.255,253.598 183.429,253.474 183.752 M269.293 183.907 C 268.878 184.322,268.238 184.777,267.869 184.918 C 267.501 185.059,267.200 185.338,267.200 185.537 C 267.200 185.737,267.920 185.543,268.800 185.108 C 269.680 184.673,270.400 184.155,270.400 183.958 C 270.400 183.316,271.949 183.581,272.395 184.300 C 272.792 184.940,272.819 184.931,272.711 184.200 C 272.546 183.076,270.315 182.885,269.293 183.907 M148.800 184.437 C 148.800 184.637,149.048 184.800,149.351 184.800 C 149.654 184.800,150.126 185.070,150.400 185.400 C 151.019 186.146,152.049 186.192,151.768 185.461 C 151.528 184.835,148.800 183.894,148.800 184.437 M226.022 184.600 C 226.027 185.163,227.875 187.200,228.381 187.200 C 228.611 187.200,228.800 187.476,228.800 187.813 C 228.800 188.149,229.070 188.529,229.400 188.655 C 229.730 188.782,230.000 189.136,230.000 189.443 C 230.000 189.749,230.270 190.000,230.600 190.000 C 230.930 190.000,231.200 190.270,231.200 190.600 C 231.200 190.930,231.391 191.200,231.624 191.200 C 232.318 191.200,231.618 190.277,227.709 186.035 C 226.779 185.026,226.020 184.380,226.022 184.600 M208.118 186.178 C 208.990 187.540,210.000 188.312,210.000 187.616 C 210.000 187.419,209.765 187.019,209.478 186.729 C 209.190 186.438,208.836 185.885,208.690 185.500 C 208.544 185.115,208.158 184.800,207.831 184.800 C 207.361 184.800,207.421 185.088,208.118 186.178 M152.800 186.567 C 152.800 186.915,153.085 187.200,153.433 187.200 C 153.782 187.200,153.995 186.986,153.908 186.725 C 153.661 185.983,152.800 185.860,152.800 186.567 M248.400 186.633 C 248.400 187.340,249.261 187.217,249.508 186.475 C 249.595 186.214,249.382 186.000,249.033 186.000 C 248.685 186.000,248.400 186.285,248.400 186.633 M173.100 187.232 C 172.715 187.456,172.400 187.811,172.400 188.020 C 172.400 188.229,172.118 188.715,171.773 189.100 C 171.428 189.485,170.358 190.680,169.394 191.755 L 167.641 193.711 166.260 193.055 C 165.501 192.695,164.604 192.400,164.269 192.400 C 163.933 192.400,163.574 192.126,163.470 191.792 C 163.338 191.366,163.300 191.396,163.345 191.892 C 163.380 192.287,163.792 192.655,164.275 192.724 C 164.752 192.792,165.357 193.107,165.620 193.424 C 166.650 194.665,170.000 193.304,170.000 191.644 C 170.000 191.400,170.270 191.200,170.600 191.200 C 170.930 191.200,171.200 190.930,171.200 190.600 C 171.200 190.270,171.425 189.999,171.700 189.997 C 171.975 189.995,172.610 189.275,173.112 188.397 C 173.614 187.519,173.974 186.805,173.912 186.812 C 173.850 186.819,173.485 187.008,173.100 187.232 M123.316 188.000 C 123.201 188.440,122.858 188.800,122.553 188.800 C 122.249 188.800,122.000 189.070,122.000 189.400 C 122.000 189.730,121.730 190.000,121.400 190.000 C 121.070 190.000,120.800 190.226,120.800 190.501 C 120.800 190.777,119.900 191.812,118.800 192.800 C 117.700 193.788,116.800 194.733,116.800 194.899 C 116.800 195.316,113.586 198.400,113.152 198.400 C 112.958 198.400,112.800 198.572,112.800 198.782 C 112.800 199.294,108.509 203.600,108.000 203.600 C 107.780 203.600,107.600 203.789,107.600 204.019 C 107.600 204.507,105.645 206.400,105.142 206.400 C 104.954 206.400,104.800 206.580,104.800 206.800 C 104.800 207.020,104.440 207.560,104.000 208.000 C 103.560 208.440,103.200 209.312,103.200 209.938 C 103.200 210.568,103.557 211.399,104.000 211.800 C 104.440 212.198,104.800 212.856,104.800 213.262 C 104.800 213.668,105.070 214.000,105.400 214.000 C 105.730 214.000,106.000 213.842,106.000 213.649 C 106.000 213.456,105.730 213.074,105.400 212.800 C 105.070 212.526,104.800 212.054,104.800 211.751 C 104.800 211.448,104.530 211.200,104.200 211.200 C 103.800 211.200,103.600 210.800,103.600 210.000 C 103.600 209.200,103.800 208.800,104.200 208.800 C 104.530 208.800,104.800 208.620,104.800 208.400 C 104.800 207.879,107.879 204.800,108.400 204.800 C 108.620 204.800,108.800 204.620,108.800 204.400 C 108.800 204.180,109.520 203.280,110.400 202.400 C 111.280 201.520,112.180 200.800,112.400 200.800 C 112.620 200.800,112.800 200.620,112.800 200.400 C 112.800 200.180,113.520 199.280,114.400 198.400 C 115.280 197.520,116.180 196.800,116.400 196.800 C 116.620 196.800,116.800 196.555,116.800 196.256 C 116.800 195.957,117.437 195.102,118.215 194.356 C 121.534 191.176,124.859 187.200,124.199 187.200 C 123.828 187.200,123.431 187.560,123.316 188.000 M135.200 187.916 C 135.750 188.369,136.264 188.562,136.342 188.345 C 136.520 187.847,136.425 187.767,135.200 187.396 L 134.200 187.093 135.200 187.916 M155.200 187.458 C 155.200 188.133,156.134 188.800,157.080 188.800 C 157.631 188.800,158.000 189.041,158.000 189.400 C 158.000 189.730,158.268 190.000,158.596 190.000 C 159.095 190.000,159.080 189.869,158.507 189.200 C 158.130 188.760,157.561 188.400,157.243 188.400 C 156.924 188.400,156.334 188.102,155.931 187.738 C 155.529 187.374,155.200 187.248,155.200 187.458 M246.400 187.800 C 246.126 188.130,245.727 188.400,245.514 188.400 C 245.301 188.400,244.669 188.760,244.109 189.200 C 243.338 189.806,243.253 190.000,243.759 190.000 C 244.125 190.000,244.524 189.741,244.646 189.424 C 244.767 189.108,245.392 188.734,246.033 188.593 C 246.675 188.452,247.200 188.081,247.200 187.768 C 247.200 187.045,247.021 187.052,246.400 187.800 M263.810 187.848 C 262.810 188.847,263.426 188.995,264.633 188.046 C 265.364 187.470,265.508 187.200,265.083 187.200 C 264.739 187.200,264.166 187.491,263.810 187.848 M276.030 188.300 C 276.563 188.905,278.394 190.830,280.099 192.577 C 281.805 194.325,283.200 195.990,283.200 196.277 C 283.200 196.565,283.380 196.800,283.600 196.800 C 283.820 196.800,284.720 197.520,285.600 198.400 C 286.480 199.280,287.200 200.180,287.200 200.400 C 287.200 200.620,287.380 200.800,287.600 200.800 C 287.820 200.800,288.720 201.520,289.600 202.400 C 290.480 203.280,291.200 204.180,291.200 204.400 C 291.200 204.620,291.380 204.800,291.600 204.800 C 291.820 204.800,292.720 205.520,293.600 206.400 C 294.480 207.280,295.200 208.180,295.200 208.400 C 295.200 208.620,295.470 208.800,295.800 208.800 C 296.200 208.800,296.400 209.200,296.400 210.000 C 296.400 210.800,296.200 211.200,295.800 211.200 C 295.470 211.200,295.200 211.448,295.200 211.751 C 295.200 212.054,294.930 212.526,294.600 212.800 C 294.270 213.074,294.000 213.456,294.000 213.649 C 294.000 213.842,294.270 214.000,294.600 214.000 C 294.930 214.000,295.200 213.668,295.200 213.262 C 295.200 212.856,295.560 212.198,296.000 211.800 C 296.443 211.399,296.800 210.568,296.800 209.938 C 296.800 209.312,296.440 208.440,296.000 208.000 C 295.560 207.560,295.200 207.020,295.200 206.800 C 295.200 206.580,295.046 206.400,294.858 206.400 C 294.355 206.400,292.400 204.507,292.400 204.019 C 292.400 203.789,292.220 203.600,292.000 203.600 C 291.491 203.600,287.200 199.294,287.200 198.782 C 287.200 198.572,287.042 198.400,286.848 198.400 C 286.419 198.400,283.203 195.321,283.193 194.900 C 283.183 194.442,281.346 192.800,280.844 192.800 C 280.600 192.800,280.400 192.530,280.400 192.200 C 280.400 191.870,280.130 191.600,279.800 191.600 C 279.470 191.600,279.200 191.324,279.200 190.987 C 279.200 190.651,278.930 190.271,278.600 190.145 C 278.270 190.018,278.000 189.664,278.000 189.357 C 278.000 189.051,277.751 188.800,277.447 188.800 C 277.142 188.800,276.799 188.440,276.684 188.000 C 276.569 187.560,276.157 187.200,275.768 187.200 C 275.155 187.200,275.190 187.347,276.030 188.300 M187.424 191.047 C 187.279 191.623,187.260 192.193,187.381 192.314 C 187.501 192.435,187.600 192.253,187.600 191.909 C 187.600 191.566,187.870 191.182,188.200 191.055 C 188.955 190.765,188.987 190.000,188.243 190.000 C 187.937 190.000,187.568 190.471,187.424 191.047 M211.200 190.413 C 211.200 190.639,211.470 190.929,211.800 191.055 C 212.130 191.182,212.400 191.566,212.400 191.909 C 212.400 192.253,212.512 192.422,212.648 192.285 C 213.091 191.842,212.402 190.000,211.792 190.000 C 211.467 190.000,211.200 190.186,211.200 190.413 M259.300 191.248 C 258.585 191.454,258.000 191.888,258.000 192.211 C 258.000 192.980,258.759 192.972,259.055 192.200 C 259.182 191.870,259.526 191.600,259.819 191.600 C 260.113 191.600,260.464 191.420,260.600 191.200 C 260.736 190.980,260.792 190.816,260.724 190.836 C 260.656 190.856,260.015 191.041,259.300 191.248 M140.000 191.490 C 140.330 191.615,140.744 191.961,140.920 192.259 C 141.337 192.964,142.000 192.955,142.000 192.243 C 142.000 191.638,141.128 191.181,140.067 191.232 C 139.518 191.258,139.506 191.303,140.000 191.490 M238.800 191.972 C 238.800 192.177,238.395 192.422,237.900 192.518 C 237.128 192.666,237.157 192.699,238.100 192.746 C 238.835 192.782,239.200 192.601,239.200 192.200 C 239.200 191.870,239.110 191.600,239.000 191.600 C 238.890 191.600,238.800 191.767,238.800 191.972 M233.300 192.676 C 233.685 192.776,234.000 193.127,234.000 193.455 C 234.000 194.216,236.457 194.048,236.713 193.269 C 236.856 192.834,236.741 192.830,236.066 193.252 C 235.374 193.683,235.126 193.657,234.491 193.082 C 234.076 192.707,233.481 192.421,233.169 192.446 C 232.811 192.476,232.860 192.561,233.300 192.676 M144.964 194.760 C 145.725 195.601,147.200 196.131,147.200 195.563 C 147.200 195.363,146.949 195.200,146.643 195.200 C 146.336 195.200,145.982 194.930,145.855 194.600 C 145.729 194.270,145.322 194.000,144.951 194.000 C 144.323 194.000,144.323 194.052,144.964 194.760 M185.067 194.267 C 184.468 194.866,184.773 195.720,185.400 195.200 C 185.730 194.926,186.000 194.544,186.000 194.351 C 186.000 193.937,185.447 193.887,185.067 194.267 M214.000 194.351 C 214.000 194.544,214.270 194.926,214.600 195.200 C 215.101 195.616,215.200 195.558,215.200 194.849 C 215.200 194.361,214.945 194.000,214.600 194.000 C 214.270 194.000,214.000 194.158,214.000 194.351 M254.145 194.600 C 254.018 194.930,253.664 195.200,253.357 195.200 C 253.051 195.200,252.800 195.363,252.800 195.563 C 252.800 196.131,254.275 195.601,255.036 194.760 C 255.677 194.052,255.677 194.000,255.049 194.000 C 254.678 194.000,254.271 194.270,254.145 194.600 M148.800 196.951 C 148.800 197.034,149.070 197.326,149.400 197.600 C 149.891 198.008,150.000 197.980,150.000 197.449 C 150.000 197.092,149.730 196.800,149.400 196.800 C 149.070 196.800,148.800 196.868,148.800 196.951 M183.200 197.269 C 183.200 197.526,182.912 198.056,182.559 198.445 C 181.830 199.250,181.939 200.137,182.707 199.659 C 183.346 199.262,184.091 196.800,183.572 196.800 C 183.367 196.800,183.200 197.011,183.200 197.269 M216.277 197.574 C 216.505 198.444,218.000 199.952,218.000 199.311 C 218.000 199.084,217.730 198.674,217.400 198.400 C 217.070 198.126,216.800 197.654,216.800 197.351 C 216.800 197.048,216.637 196.800,216.437 196.800 C 216.238 196.800,216.166 197.148,216.277 197.574 M250.000 197.449 C 250.000 197.980,250.109 198.008,250.600 197.600 C 250.930 197.326,251.200 197.034,251.200 196.951 C 251.200 196.868,250.930 196.800,250.600 196.800 C 250.270 196.800,250.000 197.092,250.000 197.449 M151.025 198.441 C 151.175 198.683,151.906 199.136,152.649 199.446 C 153.392 199.757,154.000 200.188,154.000 200.405 C 154.000 200.622,154.182 200.800,154.403 200.800 C 154.643 200.800,154.603 200.474,154.307 200.000 C 154.032 199.560,153.510 199.200,153.147 199.200 C 152.783 199.200,152.382 198.930,152.255 198.600 C 152.129 198.270,151.739 198.000,151.389 198.000 C 151.027 198.000,150.870 198.190,151.025 198.441 M247.600 198.600 C 247.600 198.930,247.283 199.200,246.896 199.200 C 246.509 199.200,245.968 199.560,245.693 200.000 C 245.397 200.474,245.357 200.800,245.597 200.800 C 245.818 200.800,246.000 200.622,246.000 200.405 C 246.000 200.188,246.630 199.748,247.400 199.426 C 248.824 198.831,249.290 198.000,248.200 198.000 C 247.870 198.000,247.600 198.270,247.600 198.600 M161.000 203.488 C 161.440 203.595,162.115 203.962,162.500 204.303 C 163.131 204.863,163.200 204.863,163.200 204.305 C 163.200 203.602,162.345 203.178,161.067 203.246 C 160.257 203.290,160.253 203.306,161.000 203.488 M179.318 203.900 C 179.176 204.285,178.822 204.744,178.530 204.920 C 178.239 205.096,178.006 205.546,178.013 205.920 C 178.030 206.761,179.600 205.044,179.600 204.185 C 179.600 203.896,179.915 203.576,180.300 203.476 C 180.956 203.304,180.955 203.290,180.287 203.246 C 179.896 203.221,179.459 203.515,179.318 203.900 M219.700 203.476 C 220.085 203.576,220.400 203.896,220.400 204.185 C 220.400 205.076,221.970 206.761,221.987 205.887 C 221.994 205.496,221.748 205.078,221.439 204.960 C 221.131 204.841,220.788 204.397,220.677 203.972 C 220.563 203.535,220.155 203.220,219.737 203.246 C 219.068 203.289,219.064 203.310,219.700 203.476 M237.067 203.467 C 236.382 204.152,236.788 204.935,237.500 204.303 C 237.885 203.962,238.560 203.595,239.000 203.488 C 239.548 203.354,239.412 203.278,238.567 203.246 C 237.888 203.221,237.213 203.320,237.067 203.467 M169.600 206.600 C 170.143 207.255,171.200 207.415,171.200 206.843 C 171.200 206.475,170.253 206.000,169.518 206.000 C 169.266 206.000,169.298 206.237,169.600 206.600 M229.300 206.265 C 229.025 206.376,228.800 206.632,228.800 206.833 C 228.800 207.413,229.852 207.260,230.400 206.600 C 230.925 205.968,230.419 205.813,229.300 206.265 M173.322 207.493 C 174.160 207.580,174.944 207.909,175.065 208.225 C 175.311 208.865,176.400 209.019,176.400 208.414 C 176.400 207.750,174.917 207.197,173.326 207.267 L 171.800 207.334 173.322 207.493 M224.300 207.632 C 223.915 207.856,223.600 208.211,223.600 208.420 C 223.600 209.021,224.691 208.862,224.935 208.225 C 225.056 207.909,225.840 207.580,226.678 207.493 L 228.200 207.334 226.600 207.279 C 225.720 207.249,224.685 207.408,224.300 207.632 M107.328 215.795 C 107.375 216.262,107.738 216.625,108.205 216.672 C 108.781 216.732,108.814 216.699,108.325 216.552 C 107.953 216.442,107.558 216.047,107.448 215.675 C 107.301 215.186,107.268 215.219,107.328 215.795 M292.400 215.704 C 292.400 216.055,292.085 216.424,291.700 216.524 C 291.044 216.696,291.045 216.710,291.713 216.754 C 292.436 216.801,293.106 215.773,292.649 215.316 C 292.512 215.179,292.400 215.353,292.400 215.704 M111.212 220.232 C 111.653 221.392,113.183 223.182,113.742 223.193 C 113.931 223.197,114.440 223.651,114.873 224.203 C 115.643 225.180,117.200 226.252,117.200 225.804 C 117.200 225.519,113.694 222.000,113.411 222.000 C 113.048 222.000,111.600 220.419,111.600 220.024 C 111.600 219.817,111.421 219.536,111.201 219.401 C 110.942 219.241,110.946 219.531,111.212 220.232 M286.184 222.126 C 284.635 223.707,283.218 225.243,283.036 225.540 C 282.463 226.470,284.233 225.338,285.127 224.203 C 285.560 223.651,286.049 223.200,286.212 223.200 C 286.696 223.200,288.432 221.168,288.820 220.147 C 289.018 219.626,289.140 219.212,289.090 219.226 C 289.041 219.240,287.733 220.545,286.184 222.126 M119.246 227.737 C 119.220 228.163,119.538 228.563,120.000 228.684 C 120.440 228.799,120.800 229.142,120.800 229.447 C 120.800 229.751,121.051 230.000,121.357 230.000 C 121.664 230.000,122.018 230.270,122.145 230.600 C 122.271 230.930,122.696 231.197,123.087 231.194 C 123.890 231.187,120.967 228.442,120.129 228.415 C 119.870 228.407,119.576 228.085,119.476 227.700 C 119.310 227.064,119.289 227.068,119.246 227.737 M280.400 227.800 C 280.400 228.130,280.158 228.400,279.862 228.400 C 279.566 228.400,278.998 228.760,278.600 229.200 C 278.202 229.640,277.544 230.000,277.138 230.000 C 276.732 230.000,276.400 230.270,276.400 230.600 C 276.400 230.930,276.651 231.200,276.957 231.200 C 277.264 231.200,277.618 230.930,277.745 230.600 C 277.871 230.270,278.251 230.000,278.587 230.000 C 278.924 230.000,279.200 229.751,279.200 229.447 C 279.200 229.142,279.560 228.799,280.000 228.684 C 280.674 228.508,281.203 227.200,280.600 227.200 C 280.490 227.200,280.400 227.470,280.400 227.800 M124.800 232.437 C 124.800 232.637,125.051 232.800,125.357 232.800 C 125.664 232.800,126.018 233.070,126.145 233.400 C 126.271 233.730,126.678 234.000,127.049 234.000 C 127.677 234.000,127.677 233.948,127.036 233.240 C 126.275 232.399,124.800 231.869,124.800 232.437 M274.186 232.381 C 272.953 232.880,272.108 234.000,272.964 234.000 C 273.327 234.000,273.729 233.730,273.855 233.400 C 273.982 233.070,274.336 232.800,274.643 232.800 C 274.949 232.800,275.200 232.620,275.200 232.400 C 275.200 232.180,275.155 232.011,275.100 232.025 C 275.045 232.039,274.634 232.199,274.186 232.381 M131.200 236.000 C 131.435 236.440,131.960 236.800,132.365 236.800 C 132.770 236.800,133.326 237.070,133.600 237.400 C 133.874 237.730,134.301 237.994,134.549 237.987 C 135.318 237.964,133.157 236.400,132.356 236.400 C 131.940 236.400,131.600 236.130,131.600 235.800 C 131.600 235.470,131.414 235.200,131.186 235.200 C 130.905 235.200,130.910 235.458,131.200 236.000 M268.400 235.706 C 268.400 236.057,267.995 236.422,267.500 236.518 L 266.600 236.691 267.513 236.746 C 268.392 236.798,269.162 235.829,268.649 235.316 C 268.512 235.179,268.400 235.354,268.400 235.706 M135.600 238.600 C 135.600 238.930,135.892 239.200,136.249 239.200 C 136.780 239.200,136.808 239.091,136.400 238.600 C 136.126 238.270,135.834 238.000,135.751 238.000 C 135.668 238.000,135.600 238.270,135.600 238.600 M263.055 238.600 C 262.899 239.008,263.077 239.200,263.613 239.200 C 264.046 239.200,264.400 238.930,264.400 238.600 C 264.400 238.270,264.149 238.000,263.843 238.000 C 263.536 238.000,263.182 238.270,263.055 238.600 M138.246 239.776 C 138.478 240.380,140.685 241.048,141.095 240.638 C 141.226 240.507,140.943 240.400,140.467 240.400 C 139.963 240.400,139.600 240.149,139.600 239.800 C 139.600 239.470,139.246 239.200,138.813 239.200 C 138.292 239.200,138.100 239.395,138.246 239.776 M260.400 239.800 C 260.400 240.175,259.987 240.420,259.300 240.454 C 258.388 240.500,258.351 240.538,259.079 240.680 C 260.047 240.867,261.600 240.194,261.600 239.586 C 261.600 239.374,261.330 239.200,261.000 239.200 C 260.670 239.200,260.400 239.470,260.400 239.800 M148.200 244.000 C 148.598 244.440,149.417 244.800,150.019 244.800 C 150.624 244.800,151.218 245.069,151.345 245.400 C 151.471 245.730,151.875 246.000,152.241 246.000 C 152.747 246.000,152.662 245.806,151.891 245.200 C 151.331 244.760,150.492 244.400,150.024 244.400 C 149.557 244.400,149.071 244.130,148.945 243.800 C 148.818 243.470,148.436 243.200,148.095 243.200 C 147.571 243.200,147.587 243.323,148.200 244.000 M249.335 244.459 C 247.452 244.882,246.126 246.000,247.508 246.000 C 247.952 246.000,248.418 245.730,248.545 245.400 C 248.679 245.049,249.279 244.800,249.987 244.800 C 250.654 244.800,251.200 244.620,251.200 244.400 C 251.200 244.180,251.155 244.019,251.100 244.043 C 251.045 244.066,250.251 244.254,249.335 244.459 M155.200 246.409 C 155.200 246.638,155.478 246.932,155.817 247.062 C 156.755 247.422,156.866 247.033,155.982 246.481 C 155.487 246.172,155.200 246.146,155.200 246.409 M243.823 246.633 C 243.174 247.107,243.154 247.200,243.700 247.200 C 244.059 247.200,244.471 247.008,244.616 246.773 C 245.040 246.087,244.661 246.020,243.823 246.633 M159.267 247.800 C 159.373 248.405,159.746 248.615,160.803 248.662 C 161.706 248.702,161.846 248.656,161.200 248.534 C 160.650 248.429,159.959 248.041,159.664 247.672 C 159.173 247.057,159.140 247.067,159.267 247.800 M240.028 247.767 C 239.760 248.089,239.060 248.426,238.471 248.516 C 237.652 248.642,237.756 248.694,238.913 248.740 C 239.948 248.781,240.500 248.605,240.662 248.183 C 240.994 247.318,240.610 247.065,240.028 247.767 M162.403 249.100 C 162.404 249.265,162.944 249.707,163.603 250.081 C 164.997 250.875,165.122 250.722,164.000 249.600 C 163.194 248.794,162.398 248.545,162.403 249.100 M164.800 251.700 C 164.800 252.059,164.992 252.471,165.227 252.616 C 165.913 253.040,165.980 252.661,165.367 251.823 C 164.893 251.174,164.800 251.154,164.800 251.700 M234.400 251.800 C 233.992 252.291,234.020 252.400,234.551 252.400 C 234.908 252.400,235.200 252.130,235.200 251.800 C 235.200 251.470,235.132 251.200,235.049 251.200 C 234.966 251.200,234.674 251.470,234.400 251.800 M166.857 255.219 C 167.318 256.105,167.971 256.795,168.340 256.788 C 168.950 256.777,168.951 256.747,168.345 256.393 C 167.984 256.182,167.581 255.578,167.448 255.049 C 167.315 254.521,166.943 253.987,166.620 253.863 C 166.172 253.691,166.229 254.015,166.857 255.219 M232.446 254.769 C 232.421 255.081,232.102 255.666,231.738 256.069 C 231.374 256.471,231.262 256.800,231.489 256.800 C 232.174 256.800,232.878 255.686,232.679 254.919 C 232.568 254.488,232.474 254.428,232.446 254.769 M230.500 257.888 C 229.899 258.103,229.826 259.200,230.413 259.200 C 230.825 259.200,231.431 258.079,231.149 257.838 C 231.067 257.767,230.775 257.790,230.500 257.888 M170.000 260.564 C 170.000 260.860,170.270 261.326,170.600 261.600 C 170.930 261.874,171.200 262.376,171.200 262.716 C 171.200 263.055,171.307 263.226,171.438 263.095 C 171.848 262.685,171.180 260.478,170.576 260.246 C 170.250 260.121,170.000 260.259,170.000 260.564 M228.400 261.967 C 228.400 262.388,228.175 262.824,227.900 262.935 C 227.601 263.056,227.682 263.150,228.100 263.168 C 228.588 263.190,228.800 262.898,228.800 262.200 C 228.800 261.650,228.710 261.200,228.600 261.200 C 228.490 261.200,228.400 261.545,228.400 261.967 M226.400 265.400 C 225.992 265.891,226.020 266.000,226.551 266.000 C 226.908 266.000,227.200 265.730,227.200 265.400 C 227.200 265.070,227.132 264.800,227.049 264.800 C 226.966 264.800,226.674 265.070,226.400 265.400 M225.100 268.212 C 224.715 268.728,224.400 269.507,224.400 269.942 C 224.400 270.377,224.216 270.825,223.990 270.937 C 223.764 271.049,223.810 271.094,224.090 271.039 C 224.370 270.983,224.662 270.508,224.739 269.984 C 224.815 269.460,225.155 268.829,225.494 268.581 C 225.833 268.333,226.040 267.938,225.955 267.702 C 225.870 267.467,225.485 267.696,225.100 268.212 M176.800 274.567 C 176.800 274.915,177.085 275.200,177.433 275.200 C 177.782 275.200,177.995 274.986,177.908 274.725 C 177.661 273.983,176.800 273.860,176.800 274.567 M221.350 276.313 C 221.103 276.471,220.768 277.230,220.606 278.000 C 220.444 278.770,220.033 279.715,219.693 280.100 C 219.354 280.485,219.248 280.800,219.458 280.800 C 220.098 280.800,220.800 279.885,220.800 279.051 C 220.800 278.618,221.088 277.944,221.441 277.555 C 222.141 276.781,222.073 275.851,221.350 276.313 M178.000 277.133 C 178.000 277.666,178.250 278.000,178.649 278.000 C 179.204 278.000,179.221 277.899,178.762 277.300 C 178.467 276.915,178.175 276.525,178.113 276.433 C 178.051 276.342,178.000 276.657,178.000 277.133 M179.328 279.397 C 179.379 280.248,179.631 280.633,180.200 280.733 C 180.930 280.860,180.942 280.825,180.334 280.336 C 179.967 280.041,179.575 279.440,179.462 279.000 C 179.342 278.534,179.286 278.699,179.328 279.397 M180.800 283.708 C 180.800 284.042,181.070 284.418,181.400 284.545 C 181.730 284.671,182.000 284.623,182.000 284.436 C 182.000 284.250,181.730 283.874,181.400 283.600 C 180.912 283.195,180.800 283.215,180.800 283.708 M217.293 286.400 C 216.876 287.067,216.893 287.200,217.397 287.200 C 217.733 287.200,218.000 286.846,218.000 286.400 C 218.000 285.960,217.953 285.600,217.896 285.600 C 217.839 285.600,217.568 285.960,217.293 286.400 M216.400 288.746 C 216.400 289.229,216.130 289.729,215.800 289.855 C 215.031 290.151,215.016 291.200,215.782 291.200 C 216.380 291.200,217.115 288.582,216.648 288.115 C 216.512 287.978,216.400 288.262,216.400 288.746 M183.338 289.597 C 183.385 290.654,183.595 291.027,184.200 291.133 C 184.933 291.260,184.943 291.227,184.328 290.736 C 183.959 290.441,183.571 289.750,183.466 289.200 C 183.344 288.554,183.298 288.694,183.338 289.597 M184.800 294.351 C 184.800 294.839,185.055 295.200,185.400 295.200 C 185.730 295.200,186.000 295.042,186.000 294.849 C 186.000 294.656,185.730 294.274,185.400 294.000 C 184.899 293.584,184.800 293.642,184.800 294.351 M214.267 293.867 C 213.884 294.249,213.938 294.800,214.357 294.800 C 214.554 294.800,214.818 294.530,214.945 294.200 C 215.179 293.590,214.753 293.381,214.267 293.867 M186.000 298.091 C 186.000 298.820,186.709 299.424,187.103 299.031 C 187.240 298.893,187.048 298.477,186.676 298.105 C 186.053 297.481,186.000 297.480,186.000 298.091 M212.454 300.267 C 212.425 300.963,212.175 301.624,211.900 301.735 C 211.508 301.893,211.511 301.944,211.913 301.968 C 212.571 302.009,212.912 301.112,212.686 299.929 C 212.548 299.203,212.497 299.277,212.454 300.267 M187.254 300.867 C 187.180 302.336,187.569 303.200,188.305 303.200 C 188.861 303.200,188.861 303.129,188.298 302.500 C 187.954 302.115,187.591 301.350,187.491 300.800 L 187.309 299.800 187.254 300.867 M210.473 305.687 C 209.913 306.247,209.855 306.800,210.357 306.800 C 210.724 306.800,211.327 305.594,211.083 305.349 C 211.008 305.275,210.734 305.426,210.473 305.687 M188.800 306.351 C 188.800 306.839,189.055 307.200,189.400 307.200 C 189.730 307.200,190.000 307.042,190.000 306.849 C 190.000 306.656,189.730 306.274,189.400 306.000 C 188.899 305.584,188.800 305.642,188.800 306.351 M209.272 310.025 C 208.982 310.494,208.850 310.983,208.979 311.112 C 209.365 311.499,210.085 310.535,209.938 309.829 C 209.822 309.280,209.714 309.312,209.272 310.025 M190.000 310.333 C 190.000 310.866,190.250 311.200,190.649 311.200 C 191.204 311.200,191.221 311.099,190.762 310.500 C 190.467 310.115,190.175 309.725,190.113 309.633 C 190.051 309.542,190.000 309.857,190.000 310.333 M208.460 312.769 C 208.427 313.301,208.102 314.066,207.738 314.469 C 207.122 315.150,207.122 315.200,207.751 315.200 C 208.586 315.200,208.912 314.415,208.690 312.934 C 208.540 311.936,208.513 311.916,208.460 312.769 M191.260 313.804 C 191.219 314.619,191.458 315.169,192.000 315.507 C 192.440 315.782,192.800 315.845,192.800 315.646 C 192.800 315.448,192.543 315.187,192.229 315.066 C 191.915 314.946,191.582 314.342,191.489 313.724 L 191.320 312.600 191.260 313.804 M192.800 319.800 C 192.800 320.130,193.092 320.400,193.449 320.400 C 193.980 320.400,194.008 320.291,193.600 319.800 C 193.326 319.470,193.034 319.200,192.951 319.200 C 192.868 319.200,192.800 319.470,192.800 319.800 M205.271 323.054 C 204.980 323.370,204.815 323.846,204.904 324.113 C 204.998 324.395,205.275 324.207,205.565 323.665 C 206.158 322.557,206.011 322.251,205.271 323.054 M194.006 323.476 C 194.003 323.958,194.192 324.471,194.427 324.616 C 195.082 325.021,195.117 324.698,194.539 323.600 C 194.033 322.641,194.012 322.636,194.006 323.476 M204.400 326.069 C 204.400 326.546,204.101 327.267,203.736 327.671 C 202.899 328.595,203.277 329.066,204.152 328.190 C 204.734 327.609,205.094 325.200,204.600 325.200 C 204.490 325.200,204.400 325.591,204.400 326.069 M195.338 327.197 C 195.385 328.254,195.595 328.627,196.200 328.733 C 196.933 328.860,196.943 328.827,196.328 328.336 C 195.959 328.041,195.571 327.350,195.466 326.800 C 195.344 326.154,195.298 326.294,195.338 327.197 M202.481 332.018 C 202.172 332.513,202.146 332.800,202.409 332.800 C 202.638 332.800,202.932 332.522,203.062 332.183 C 203.422 331.245,203.033 331.134,202.481 332.018 M196.800 332.770 C 196.800 333.179,197.070 333.618,197.400 333.745 C 197.801 333.898,198.000 333.728,198.000 333.230 C 198.000 332.821,197.730 332.382,197.400 332.255 C 196.999 332.102,196.800 332.272,196.800 332.770 M201.600 335.846 C 201.600 336.713,199.034 337.253,198.469 336.504 C 197.984 335.863,197.949 335.889,198.069 336.796 C 198.210 337.870,199.066 338.221,200.605 337.834 C 201.510 337.607,202.327 336.193,201.837 335.703 C 201.706 335.573,201.600 335.637,201.600 335.846 " stroke="none" fill="#000000" fill-rule="evenodd"></path><path id="path1" d="" stroke="none" fill="#2a2a2a" fill-rule="evenodd"></path><path id="path2" d="" stroke="none" fill="#404040" fill-rule="evenodd"></path><path id="path3" d="M195.018 62.600 C 194.368 62.951,193.065 63.344,192.122 63.473 C 191.180 63.602,190.205 63.953,189.955 64.254 C 189.706 64.554,188.916 64.800,188.200 64.800 C 187.484 64.800,186.674 65.070,186.400 65.400 C 186.126 65.730,185.592 66.000,185.212 66.000 C 184.833 66.000,184.107 66.360,183.600 66.800 C 183.093 67.240,182.339 67.600,181.926 67.600 C 181.513 67.600,181.071 67.870,180.945 68.200 C 180.818 68.530,180.278 68.800,179.745 68.800 C 179.211 68.800,178.671 69.070,178.545 69.400 C 178.418 69.730,178.058 70.000,177.745 70.000 C 177.431 70.000,177.076 70.259,176.954 70.576 C 176.833 70.892,176.223 71.263,175.600 71.400 C 174.977 71.537,174.367 71.908,174.246 72.224 C 174.124 72.541,173.832 72.800,173.596 72.800 C 173.059 72.800,170.709 74.430,170.280 75.100 C 170.104 75.375,169.699 75.600,169.380 75.600 C 169.061 75.600,168.800 75.870,168.800 76.200 C 168.800 76.530,168.468 76.800,168.061 76.800 C 167.655 76.800,166.907 77.160,166.400 77.600 C 165.893 78.040,165.325 78.400,165.139 78.400 C 164.952 78.400,164.800 78.670,164.800 79.000 C 164.800 79.330,164.575 79.606,164.300 79.613 C 162.257 79.668,161.326 82.817,162.800 84.691 C 163.240 85.250,163.600 86.044,163.600 86.454 C 163.600 86.864,163.870 87.200,164.200 87.200 C 164.565 87.200,164.800 87.572,164.800 88.151 C 164.800 88.674,165.070 89.326,165.400 89.600 C 165.730 89.874,166.000 90.408,166.000 90.788 C 166.000 91.167,166.360 91.893,166.800 92.400 C 167.240 92.907,167.600 93.745,167.600 94.261 C 167.600 94.829,167.837 95.200,168.200 95.200 C 168.617 95.200,168.800 95.619,168.800 96.571 C 168.800 97.326,169.089 98.232,169.442 98.585 C 169.975 99.118,170.085 100.249,170.085 105.200 C 170.085 110.151,169.975 111.282,169.442 111.815 C 169.089 112.168,168.800 112.962,168.800 113.580 C 168.800 114.197,168.530 114.926,168.200 115.200 C 167.870 115.474,167.600 115.922,167.600 116.195 C 167.600 116.468,167.240 117.150,166.800 117.709 C 166.360 118.269,166.000 118.991,166.000 119.314 C 166.000 119.637,165.730 120.126,165.400 120.400 C 165.070 120.674,164.800 121.217,164.800 121.606 C 164.800 121.996,164.530 122.418,164.200 122.545 C 163.870 122.671,163.600 123.101,163.600 123.499 C 163.600 123.897,163.240 124.530,162.800 124.907 C 162.360 125.284,162.000 125.954,162.000 126.396 C 162.000 126.838,161.816 127.200,161.590 127.200 C 161.365 127.200,161.009 127.650,160.800 128.200 C 160.591 128.750,160.235 129.200,160.010 129.200 C 159.784 129.200,159.600 129.551,159.600 129.981 C 159.600 130.410,158.970 131.373,158.200 132.121 C 157.430 132.869,156.800 133.594,156.800 133.733 C 156.800 134.441,151.524 139.600,150.800 139.600 C 150.580 139.600,150.400 139.870,150.400 140.200 C 150.400 140.530,150.059 140.800,149.643 140.800 C 149.226 140.800,148.782 141.070,148.655 141.400 C 148.529 141.730,148.087 142.000,147.675 142.000 C 147.262 142.000,146.598 142.360,146.200 142.800 C 145.802 143.240,145.054 143.600,144.538 143.600 C 143.971 143.600,143.600 143.837,143.600 144.200 C 143.600 144.632,143.159 144.800,142.029 144.800 C 141.164 144.800,140.187 145.070,139.857 145.400 C 139.491 145.767,138.507 146.001,137.329 146.002 C 136.268 146.004,134.875 146.279,134.234 146.613 C 133.434 147.030,131.299 147.295,127.434 147.458 C 123.763 147.612,121.497 147.884,120.930 148.237 C 120.321 148.617,118.227 148.812,113.930 148.889 L 107.800 149.000 107.674 150.310 C 107.537 151.728,111.359 155.956,115.126 158.554 C 116.047 159.189,116.800 159.864,116.800 160.054 C 116.800 160.244,117.049 160.400,117.353 160.400 C 117.658 160.400,118.001 160.760,118.116 161.200 C 118.231 161.640,118.612 162.000,118.963 162.000 C 119.313 162.000,119.600 162.270,119.600 162.600 C 119.600 162.930,119.786 163.200,120.013 163.200 C 120.241 163.200,120.925 163.695,121.534 164.300 C 122.672 165.431,125.011 167.200,125.368 167.200 C 125.479 167.200,126.399 168.006,127.413 168.992 C 129.177 170.706,130.586 171.682,132.100 172.237 C 132.485 172.378,132.800 172.742,132.800 173.047 C 132.800 173.351,132.952 173.600,133.139 173.600 C 133.325 173.600,133.893 173.960,134.400 174.400 C 134.907 174.840,135.655 175.200,136.061 175.200 C 136.468 175.200,136.800 175.427,136.800 175.705 C 136.800 176.201,137.081 176.402,139.431 177.592 C 140.074 177.917,140.744 178.412,140.920 178.692 C 141.096 178.971,141.482 179.200,141.777 179.200 C 142.073 179.200,142.418 179.470,142.545 179.800 C 142.671 180.130,143.146 180.400,143.600 180.400 C 144.054 180.400,144.524 180.657,144.645 180.972 C 144.765 181.287,145.345 181.734,145.932 181.966 C 147.356 182.529,148.528 183.288,148.920 183.900 C 149.096 184.175,149.593 184.400,150.024 184.400 C 150.455 184.400,151.116 184.760,151.493 185.200 C 151.870 185.640,152.503 186.000,152.901 186.000 C 153.299 186.000,153.729 186.270,153.855 186.600 C 153.982 186.930,154.404 187.200,154.794 187.200 C 155.183 187.200,155.726 187.470,156.000 187.800 C 156.274 188.130,156.796 188.400,157.160 188.400 C 157.524 188.400,158.130 188.760,158.507 189.200 C 158.884 189.640,159.535 190.000,159.953 190.000 C 160.372 190.000,160.818 190.270,160.945 190.600 C 161.079 190.951,161.679 191.200,162.387 191.200 C 163.199 191.200,163.600 191.399,163.600 191.800 C 163.600 192.142,163.960 192.400,164.438 192.400 C 164.899 192.400,165.768 192.690,166.369 193.045 C 167.651 193.802,168.188 193.420,171.129 189.664 C 172.048 188.488,173.341 187.053,174.000 186.474 C 174.660 185.896,175.200 185.192,175.200 184.911 C 175.200 184.630,175.470 184.400,175.800 184.400 C 176.130 184.400,176.400 184.243,176.400 184.050 C 176.400 183.858,177.030 183.013,177.800 182.172 C 178.570 181.331,179.200 180.403,179.200 180.109 C 179.200 179.815,179.470 179.471,179.800 179.345 C 180.130 179.218,180.400 178.864,180.400 178.557 C 180.400 178.251,180.670 178.000,181.000 178.000 C 181.330 178.000,181.600 177.835,181.600 177.634 C 181.600 177.433,182.230 176.620,183.000 175.827 C 183.770 175.034,184.400 174.237,184.400 174.055 C 184.400 173.873,184.760 173.398,185.200 173.000 C 185.640 172.602,186.000 172.118,186.000 171.925 C 186.000 171.731,186.540 171.045,187.200 170.400 C 187.860 169.755,188.400 169.069,188.400 168.875 C 188.400 168.682,188.760 168.198,189.200 167.800 C 189.640 167.402,190.000 166.853,190.000 166.581 C 190.000 166.308,190.270 165.982,190.600 165.855 C 190.930 165.729,191.200 165.349,191.200 165.013 C 191.200 164.676,191.470 164.400,191.800 164.400 C 192.130 164.400,192.400 164.158,192.400 163.862 C 192.400 163.566,192.760 162.998,193.200 162.600 C 193.640 162.202,194.000 161.653,194.000 161.381 C 194.000 161.108,194.270 160.782,194.600 160.655 C 194.930 160.529,195.200 160.149,195.200 159.813 C 195.200 159.476,195.470 159.200,195.800 159.200 C 196.130 159.200,196.400 158.924,196.400 158.587 C 196.400 158.251,196.657 157.876,196.972 157.755 C 197.287 157.635,197.727 157.010,197.951 156.368 C 198.175 155.726,198.548 155.200,198.779 155.200 C 199.011 155.200,199.200 154.949,199.200 154.643 C 199.200 154.336,199.470 153.982,199.800 153.855 C 200.130 153.729,200.400 153.349,200.400 153.013 C 200.400 152.667,200.748 152.400,201.200 152.400 C 201.652 152.400,202.000 152.667,202.000 153.013 C 202.000 153.349,202.257 153.724,202.572 153.845 C 202.887 153.965,203.327 154.590,203.551 155.232 C 203.775 155.874,204.148 156.400,204.379 156.400 C 204.611 156.400,204.803 156.625,204.807 156.900 C 204.811 157.175,205.271 157.834,205.830 158.364 C 206.388 158.894,207.110 159.839,207.433 160.464 C 207.756 161.089,208.196 161.600,208.410 161.600 C 208.625 161.600,208.800 161.876,208.800 162.213 C 208.800 162.549,209.070 162.929,209.400 163.055 C 209.730 163.182,210.000 163.446,210.000 163.643 C 210.000 163.839,210.360 164.405,210.800 164.900 C 212.521 166.836,212.800 167.214,212.800 167.613 C 212.800 167.839,213.070 168.129,213.400 168.255 C 213.730 168.382,214.000 168.730,214.000 169.029 C 214.000 169.327,214.360 169.765,214.800 170.000 C 215.240 170.235,215.600 170.652,215.600 170.925 C 215.600 171.198,216.114 171.985,216.743 172.673 C 217.371 173.361,217.995 174.211,218.130 174.562 C 218.265 174.913,218.651 175.200,218.987 175.200 C 219.324 175.200,219.600 175.470,219.600 175.800 C 219.600 176.130,219.870 176.400,220.200 176.400 C 220.530 176.400,220.800 176.670,220.800 177.000 C 220.800 177.576,221.027 177.906,222.800 179.900 C 223.240 180.395,223.600 180.896,223.600 181.013 C 223.600 181.131,224.140 181.755,224.800 182.400 C 225.460 183.045,226.000 183.759,226.000 183.987 C 226.000 184.214,226.276 184.400,226.613 184.400 C 226.950 184.400,227.355 184.733,227.513 185.141 C 227.833 185.966,229.528 188.129,231.500 190.230 C 232.215 190.992,232.800 191.770,232.800 191.961 C 232.800 192.151,233.115 192.412,233.500 192.542 C 233.885 192.671,234.496 192.994,234.857 193.260 C 235.386 193.648,235.646 193.611,236.186 193.071 C 236.555 192.702,237.182 192.400,237.580 192.400 C 237.977 192.400,238.526 192.130,238.800 191.800 C 239.074 191.470,239.614 191.200,240.000 191.200 C 240.386 191.200,240.926 190.930,241.200 190.600 C 241.474 190.270,242.008 190.000,242.387 190.000 C 242.766 190.000,243.402 189.640,243.800 189.200 C 244.198 188.760,244.856 188.400,245.262 188.400 C 245.668 188.400,246.000 188.130,246.000 187.800 C 246.000 187.400,246.400 187.200,247.200 187.200 C 248.000 187.200,248.400 187.000,248.400 186.600 C 248.400 186.237,248.771 186.000,249.338 186.000 C 249.854 186.000,250.602 185.640,251.000 185.200 C 251.398 184.760,252.062 184.400,252.475 184.400 C 252.887 184.400,253.329 184.130,253.455 183.800 C 253.582 183.470,253.942 183.200,254.255 183.200 C 254.569 183.200,254.924 182.941,255.046 182.624 C 255.167 182.308,255.792 181.934,256.433 181.793 C 257.075 181.652,257.600 181.381,257.600 181.190 C 257.600 180.867,258.712 180.153,260.600 179.265 C 261.040 179.058,261.903 178.420,262.517 177.848 C 263.131 177.275,264.063 176.699,264.588 176.567 C 265.113 176.436,265.639 176.074,265.759 175.764 C 265.878 175.454,266.251 175.200,266.587 175.200 C 266.924 175.200,267.200 175.052,267.200 174.871 C 267.200 174.496,270.283 172.400,270.836 172.400 C 271.036 172.400,271.200 172.130,271.200 171.800 C 271.200 171.470,271.364 171.200,271.564 171.200 C 272.117 171.200,275.200 169.104,275.200 168.729 C 275.200 168.548,275.470 168.400,275.800 168.400 C 276.130 168.400,276.400 168.130,276.400 167.800 C 276.400 167.470,276.676 167.200,277.013 167.200 C 277.349 167.200,277.729 166.930,277.855 166.600 C 277.982 166.270,278.246 166.000,278.443 166.000 C 278.639 166.000,279.160 165.685,279.600 165.300 C 280.040 164.915,280.760 164.285,281.200 163.900 C 281.640 163.515,282.117 163.200,282.260 163.200 C 282.403 163.200,283.383 162.300,284.437 161.200 C 285.492 160.100,286.545 159.200,286.777 159.200 C 287.010 159.200,287.200 158.930,287.200 158.600 C 287.200 158.270,287.388 158.000,287.619 158.000 C 288.257 158.000,295.200 150.972,295.200 150.326 C 295.200 149.001,294.290 148.800,288.306 148.800 C 283.951 148.800,282.136 148.653,281.486 148.247 C 280.899 147.881,278.697 147.615,274.966 147.458 C 271.101 147.295,268.966 147.030,268.166 146.613 C 267.525 146.279,266.132 146.004,265.071 146.002 C 263.893 146.001,262.909 145.767,262.543 145.400 C 262.213 145.070,261.320 144.800,260.559 144.800 C 259.698 144.800,259.088 144.573,258.945 144.200 C 258.818 143.870,258.294 143.600,257.781 143.600 C 257.267 143.600,256.725 143.402,256.575 143.159 C 256.425 142.917,255.694 142.464,254.951 142.154 C 254.208 141.843,253.600 141.412,253.600 141.195 C 253.600 140.978,253.276 140.800,252.881 140.800 C 252.485 140.800,251.540 140.176,250.781 139.413 C 250.021 138.650,249.175 138.020,248.900 138.013 C 248.625 138.006,248.400 137.730,248.400 137.400 C 248.400 137.070,248.130 136.800,247.800 136.800 C 247.470 136.800,247.200 136.530,247.200 136.200 C 247.200 135.870,246.930 135.600,246.600 135.600 C 246.270 135.600,245.999 135.285,245.998 134.900 C 245.997 134.515,245.412 133.550,244.698 132.755 C 243.098 130.974,242.510 130.107,241.966 128.732 C 241.734 128.145,241.287 127.565,240.972 127.445 C 240.657 127.324,240.400 126.854,240.400 126.400 C 240.400 125.946,240.130 125.471,239.800 125.345 C 239.470 125.218,239.200 124.768,239.200 124.345 C 239.200 123.921,238.930 123.471,238.600 123.345 C 238.270 123.218,238.000 122.772,238.000 122.353 C 238.000 121.935,237.640 121.284,237.200 120.907 C 236.760 120.530,236.400 119.831,236.400 119.354 C 236.400 118.876,236.130 118.382,235.800 118.255 C 235.470 118.129,235.200 117.564,235.200 117.000 C 235.200 116.436,234.930 115.871,234.600 115.745 C 234.270 115.618,234.000 115.097,234.000 114.586 C 234.000 114.075,233.713 113.370,233.361 113.018 C 232.986 112.643,232.633 111.394,232.506 109.993 C 232.387 108.680,232.044 107.403,231.745 107.154 C 231.037 106.566,231.042 104.229,231.753 103.639 C 232.063 103.382,232.380 102.153,232.475 100.840 C 232.582 99.358,232.893 98.250,233.322 97.821 C 233.695 97.448,234.000 96.728,234.000 96.220 C 234.000 95.713,234.270 95.074,234.600 94.800 C 234.930 94.526,235.200 93.896,235.200 93.400 C 235.200 92.904,235.470 92.274,235.800 92.000 C 236.130 91.726,236.400 91.237,236.400 90.914 C 236.400 90.591,236.760 89.869,237.200 89.309 C 237.640 88.750,238.000 88.066,238.000 87.789 C 238.000 87.512,238.270 87.182,238.600 87.055 C 238.951 86.921,239.200 86.321,239.200 85.613 C 239.200 84.801,239.399 84.400,239.800 84.400 C 240.244 84.400,240.400 83.933,240.400 82.600 C 240.400 81.267,240.244 80.800,239.800 80.800 C 239.470 80.800,239.200 80.530,239.200 80.200 C 239.200 79.870,238.970 79.600,238.689 79.600 C 238.408 79.600,237.870 79.240,237.493 78.800 C 237.116 78.360,236.446 78.000,236.004 78.000 C 235.556 78.000,235.200 77.734,235.200 77.400 C 235.200 77.070,234.859 76.800,234.443 76.800 C 234.026 76.800,233.582 76.530,233.455 76.200 C 233.329 75.870,232.866 75.600,232.427 75.600 C 231.987 75.600,231.435 75.240,231.200 74.800 C 230.965 74.360,230.527 74.000,230.229 74.000 C 229.930 74.000,229.582 73.730,229.455 73.400 C 229.329 73.070,228.769 72.800,228.213 72.800 C 227.579 72.800,227.200 72.575,227.200 72.200 C 227.200 71.870,226.924 71.600,226.587 71.600 C 226.251 71.600,225.876 71.341,225.754 71.024 C 225.633 70.708,225.023 70.337,224.400 70.200 C 223.777 70.063,223.167 69.692,223.046 69.376 C 222.924 69.059,222.481 68.800,222.062 68.800 C 221.642 68.800,221.074 68.530,220.800 68.200 C 220.526 67.870,220.078 67.600,219.805 67.600 C 219.532 67.600,218.850 67.240,218.291 66.800 C 217.731 66.360,217.009 66.000,216.686 66.000 C 216.363 66.000,215.874 65.730,215.600 65.400 C 215.326 65.070,214.516 64.800,213.800 64.800 C 213.084 64.800,212.295 64.555,212.046 64.255 C 211.797 63.956,210.676 63.602,209.555 63.469 C 208.433 63.336,207.237 62.996,206.897 62.714 C 205.894 61.881,196.518 61.792,195.018 62.600 M198.307 178.800 C 198.032 179.240,197.581 179.600,197.304 179.600 C 197.027 179.600,196.800 179.771,196.800 179.980 C 196.800 180.189,195.983 181.224,194.984 182.280 C 193.985 183.336,193.065 184.605,192.940 185.100 C 192.815 185.595,192.463 186.000,192.157 186.000 C 191.850 186.000,191.600 186.189,191.600 186.420 C 191.600 186.651,190.970 187.488,190.200 188.281 C 189.430 189.074,188.800 190.036,188.800 190.419 C 188.800 190.801,188.530 191.218,188.200 191.345 C 187.870 191.471,187.600 191.761,187.600 191.987 C 187.600 192.214,187.240 192.760,186.800 193.200 C 186.360 193.640,186.000 194.270,186.000 194.600 C 186.000 194.930,185.816 195.200,185.590 195.200 C 185.365 195.200,185.009 195.650,184.800 196.200 C 184.591 196.750,184.235 197.200,184.010 197.200 C 183.784 197.200,183.600 197.562,183.600 198.004 C 183.600 198.446,183.240 199.116,182.800 199.493 C 182.360 199.870,182.000 200.331,182.000 200.517 C 182.000 200.704,181.730 201.127,181.400 201.457 C 181.070 201.787,180.800 202.404,180.800 202.829 C 180.800 203.253,180.530 203.600,180.200 203.600 C 179.870 203.600,179.600 203.953,179.600 204.384 C 179.600 204.816,179.279 205.491,178.888 205.884 C 178.496 206.278,177.926 207.095,177.620 207.700 C 177.017 208.895,175.480 209.210,174.920 208.254 C 174.742 207.951,173.665 207.621,172.496 207.513 C 171.339 207.405,170.065 207.020,169.664 206.658 C 169.240 206.275,168.259 206.000,167.311 206.000 C 166.235 206.000,165.608 205.797,165.455 205.400 C 165.324 205.057,164.727 204.800,164.062 204.800 C 163.422 204.800,162.674 204.530,162.400 204.200 C 162.126 203.870,161.519 203.599,161.051 203.597 C 160.583 203.596,159.660 203.237,159.000 202.800 C 158.340 202.363,157.504 202.004,157.143 202.003 C 156.781 202.001,156.382 201.730,156.255 201.400 C 156.129 201.070,155.564 200.800,155.000 200.800 C 154.436 200.800,153.876 200.541,153.754 200.224 C 153.633 199.908,153.023 199.537,152.400 199.400 C 151.777 199.263,151.167 198.892,151.046 198.576 C 150.924 198.259,150.571 198.000,150.262 198.000 C 149.952 198.000,149.474 197.730,149.200 197.400 C 148.926 197.070,148.383 196.800,147.994 196.800 C 147.604 196.800,147.182 196.530,147.055 196.200 C 146.929 195.870,146.577 195.600,146.275 195.600 C 145.972 195.600,145.398 195.240,145.000 194.800 C 144.602 194.360,144.053 194.000,143.781 194.000 C 143.508 194.000,143.182 193.730,143.055 193.400 C 142.929 193.070,142.454 192.800,142.000 192.800 C 141.546 192.800,141.071 192.530,140.945 192.200 C 140.818 191.870,140.374 191.600,139.957 191.600 C 139.531 191.600,139.200 191.321,139.200 190.963 C 139.200 190.612,138.852 190.234,138.428 190.123 C 138.003 190.012,137.559 189.669,137.440 189.361 C 137.322 189.052,136.854 188.800,136.400 188.800 C 135.946 188.800,135.471 188.530,135.345 188.200 C 135.218 187.870,134.973 187.600,134.800 187.600 C 134.626 187.600,133.895 187.049,133.175 186.377 C 132.454 185.704,131.355 185.051,130.733 184.927 C 130.110 184.802,129.600 184.537,129.600 184.337 C 129.600 182.481,127.452 184.154,122.800 189.636 C 121.810 190.802,120.055 192.684,118.900 193.818 C 117.745 194.952,116.800 196.087,116.800 196.340 C 116.800 196.593,116.530 196.800,116.200 196.800 C 115.870 196.800,115.600 197.070,115.600 197.400 C 115.600 197.730,115.313 198.000,114.963 198.000 C 114.612 198.000,114.231 198.360,114.116 198.800 C 114.001 199.240,113.658 199.600,113.353 199.600 C 113.049 199.600,112.800 199.870,112.800 200.200 C 112.800 200.530,112.530 200.800,112.200 200.800 C 111.870 200.800,111.600 201.070,111.600 201.400 C 111.600 201.730,111.313 202.000,110.963 202.000 C 110.612 202.000,110.231 202.360,110.116 202.800 C 110.001 203.240,109.658 203.600,109.353 203.600 C 109.049 203.600,108.800 203.870,108.800 204.200 C 108.800 204.530,108.530 204.800,108.200 204.800 C 107.870 204.800,107.600 205.070,107.600 205.400 C 107.600 205.730,107.313 206.000,106.963 206.000 C 106.612 206.000,106.231 206.360,106.116 206.800 C 106.001 207.240,105.658 207.600,105.353 207.600 C 105.049 207.600,104.800 207.870,104.800 208.200 C 104.800 208.530,104.530 208.800,104.200 208.800 C 103.800 208.800,103.600 209.200,103.600 210.000 C 103.600 210.800,103.800 211.200,104.200 211.200 C 104.530 211.200,104.800 211.364,104.800 211.564 C 104.800 212.117,106.896 215.200,107.271 215.200 C 107.452 215.200,107.600 215.470,107.600 215.800 C 107.600 216.130,107.870 216.400,108.200 216.400 C 108.530 216.400,108.800 216.600,108.800 216.844 C 108.800 217.458,110.490 219.185,111.100 219.193 C 111.375 219.197,111.600 219.470,111.600 219.800 C 111.600 220.130,111.870 220.400,112.200 220.400 C 112.530 220.400,112.800 220.600,112.800 220.844 C 112.800 221.458,114.490 223.185,115.100 223.193 C 115.375 223.197,115.600 223.470,115.600 223.800 C 115.600 224.130,115.870 224.400,116.200 224.400 C 116.530 224.400,116.800 224.604,116.800 224.854 C 116.800 225.388,118.670 227.200,119.221 227.200 C 119.429 227.200,119.600 227.470,119.600 227.800 C 119.600 228.130,119.842 228.400,120.138 228.400 C 120.434 228.400,121.002 228.760,121.400 229.200 C 121.798 229.640,122.347 230.000,122.619 230.000 C 122.892 230.000,123.218 230.270,123.345 230.600 C 123.471 230.930,123.831 231.200,124.145 231.200 C 124.458 231.200,124.818 231.470,124.945 231.800 C 125.071 232.130,125.423 232.400,125.725 232.400 C 126.028 232.400,126.602 232.760,127.000 233.200 C 127.398 233.640,127.944 234.000,128.213 234.000 C 128.482 234.000,128.926 234.270,129.200 234.600 C 129.474 234.930,130.126 235.200,130.649 235.200 C 131.228 235.200,131.600 235.435,131.600 235.800 C 131.600 236.130,131.936 236.400,132.346 236.400 C 132.756 236.400,133.550 236.760,134.109 237.200 C 134.669 237.640,135.503 238.000,135.963 238.000 C 136.440 238.000,136.800 238.258,136.800 238.600 C 136.800 239.019,137.222 239.200,138.200 239.200 C 139.178 239.200,139.600 239.381,139.600 239.800 C 139.600 240.169,139.975 240.400,140.571 240.400 C 141.106 240.400,141.804 240.661,142.123 240.980 C 142.442 241.299,143.218 241.690,143.848 241.848 C 144.477 242.006,145.232 242.375,145.525 242.667 C 145.818 242.960,146.655 243.200,147.386 243.200 C 148.136 243.200,148.805 243.436,148.923 243.743 C 149.038 244.042,149.843 244.401,150.714 244.540 C 151.584 244.679,152.522 245.064,152.797 245.396 C 153.073 245.728,153.771 246.006,154.349 246.013 C 154.927 246.020,155.749 246.290,156.176 246.613 C 156.604 246.936,157.529 247.200,158.234 247.200 C 158.943 247.200,159.607 247.442,159.723 247.743 C 159.837 248.041,160.647 248.381,161.521 248.499 C 163.011 248.699,164.800 249.938,164.800 250.769 C 164.800 250.973,165.430 251.964,166.200 252.973 C 166.970 253.982,167.600 255.081,167.600 255.416 C 167.600 255.751,167.870 256.129,168.200 256.255 C 168.530 256.382,168.800 256.807,168.800 257.200 C 168.800 257.593,169.070 258.018,169.400 258.145 C 169.730 258.271,170.000 258.701,170.000 259.099 C 170.000 259.497,170.360 260.130,170.800 260.507 C 171.240 260.884,171.600 261.560,171.600 262.009 C 171.600 262.458,171.870 262.929,172.200 263.055 C 172.530 263.182,172.800 263.722,172.800 264.255 C 172.800 264.789,173.070 265.329,173.400 265.455 C 173.730 265.582,174.000 266.089,174.000 266.582 C 174.000 267.074,174.360 267.893,174.800 268.400 C 175.240 268.907,175.600 269.661,175.600 270.074 C 175.600 270.487,175.870 270.929,176.200 271.055 C 176.544 271.187,176.800 271.785,176.800 272.455 C 176.800 273.126,177.056 273.723,177.400 273.855 C 177.730 273.982,178.000 274.533,178.000 275.080 C 178.000 275.626,178.360 276.531,178.800 277.091 C 179.240 277.650,179.600 278.539,179.600 279.066 C 179.600 279.594,179.870 280.129,180.200 280.255 C 180.565 280.395,180.800 281.001,180.800 281.800 C 180.800 282.599,181.035 283.205,181.400 283.345 C 181.733 283.473,182.001 284.069,182.003 284.687 C 182.004 285.299,182.363 286.340,182.800 287.000 C 183.237 287.660,183.596 288.592,183.597 289.071 C 183.599 289.551,183.870 290.213,184.200 290.543 C 184.530 290.873,184.800 291.674,184.800 292.322 C 184.800 292.971,185.070 293.726,185.400 294.000 C 185.730 294.274,186.000 295.093,186.000 295.820 C 186.000 296.548,186.265 297.408,186.589 297.732 C 186.913 298.056,187.295 299.055,187.439 299.953 C 187.582 300.850,187.947 301.790,188.250 302.041 C 188.552 302.293,188.800 303.174,188.800 304.000 C 188.800 304.847,189.062 305.719,189.400 306.000 C 189.730 306.274,190.000 307.107,190.000 307.850 C 190.000 308.594,190.360 309.875,190.800 310.696 C 191.240 311.516,191.600 312.757,191.600 313.451 C 191.600 314.205,191.842 314.807,192.200 314.945 C 192.612 315.103,192.800 315.747,192.800 317.000 C 192.800 318.253,192.988 318.897,193.400 319.055 C 193.797 319.208,194.000 319.835,194.000 320.911 C 194.000 321.810,194.274 322.840,194.612 323.214 C 194.949 323.586,195.336 324.831,195.472 325.981 C 195.613 327.172,195.952 328.160,196.260 328.278 C 196.601 328.409,196.800 329.139,196.800 330.255 C 196.800 331.459,196.992 332.099,197.400 332.255 C 197.802 332.409,198.000 333.041,198.000 334.166 C 198.000 338.361,201.931 337.806,202.007 333.600 C 202.017 333.050,202.290 332.251,202.613 331.824 C 202.936 331.396,203.200 330.384,203.200 329.573 C 203.200 328.762,203.447 327.893,203.749 327.642 C 204.052 327.391,204.417 326.334,204.563 325.293 C 204.708 324.252,205.090 323.051,205.413 322.624 C 205.736 322.196,206.000 321.239,206.000 320.495 C 206.000 319.751,206.270 318.873,206.600 318.543 C 206.930 318.213,207.200 317.258,207.200 316.420 C 207.200 315.583,207.447 314.693,207.749 314.442 C 208.052 314.191,208.415 313.108,208.558 312.035 C 208.700 310.962,209.083 309.863,209.408 309.593 C 209.738 309.319,210.000 308.438,210.000 307.600 C 210.000 306.753,210.262 305.881,210.600 305.600 C 210.962 305.300,211.200 304.424,211.200 303.394 C 211.200 302.325,211.403 301.608,211.743 301.477 C 212.041 301.363,212.388 300.508,212.512 299.577 C 212.637 298.646,212.947 297.757,213.200 297.600 C 213.453 297.443,213.760 296.572,213.882 295.664 C 214.004 294.755,214.350 293.807,214.652 293.557 C 214.953 293.307,215.200 292.398,215.200 291.538 C 215.200 290.518,215.408 289.895,215.800 289.745 C 216.130 289.618,216.401 289.129,216.403 288.657 C 216.404 288.186,216.763 287.260,217.200 286.600 C 217.637 285.940,217.996 284.924,217.997 284.343 C 217.999 283.761,218.270 283.182,218.600 283.055 C 218.971 282.913,219.200 282.305,219.200 281.462 C 219.200 280.712,219.451 279.890,219.758 279.635 C 220.065 279.380,220.430 278.565,220.569 277.824 C 220.708 277.083,221.087 276.376,221.411 276.251 C 221.744 276.123,222.000 275.517,222.000 274.855 C 222.000 274.185,222.256 273.587,222.600 273.455 C 222.944 273.323,223.200 272.726,223.200 272.055 C 223.200 271.385,223.456 270.787,223.800 270.655 C 224.130 270.529,224.400 270.087,224.400 269.674 C 224.400 269.261,224.760 268.507,225.200 268.000 C 225.640 267.493,226.000 266.767,226.000 266.388 C 226.000 266.008,226.270 265.474,226.600 265.200 C 226.930 264.926,227.200 264.358,227.200 263.938 C 227.200 263.519,227.470 263.071,227.800 262.945 C 228.130 262.818,228.400 262.324,228.400 261.846 C 228.400 261.369,228.760 260.670,229.200 260.293 C 229.640 259.916,230.000 259.265,230.000 258.847 C 230.000 258.428,230.270 257.982,230.600 257.855 C 230.930 257.729,231.200 257.281,231.200 256.862 C 231.200 256.442,231.470 255.874,231.800 255.600 C 232.130 255.326,232.400 254.848,232.400 254.538 C 232.400 254.229,232.657 253.876,232.972 253.755 C 233.287 253.635,233.727 253.010,233.951 252.368 C 234.175 251.726,234.548 251.200,234.779 251.200 C 235.011 251.200,235.200 250.981,235.200 250.713 C 235.200 249.886,237.265 248.400,238.413 248.400 C 239.012 248.400,239.726 248.130,240.000 247.800 C 240.274 247.470,241.093 247.200,241.820 247.200 C 242.548 247.200,243.413 246.930,243.743 246.600 C 244.073 246.270,244.822 246.000,245.408 246.000 C 245.994 246.000,246.931 245.640,247.491 245.200 C 248.050 244.760,249.004 244.400,249.611 244.400 C 250.223 244.400,250.817 244.133,250.945 243.800 C 251.087 243.429,251.695 243.200,252.538 243.200 C 253.288 243.200,254.126 242.930,254.400 242.600 C 254.674 242.270,255.212 242.000,255.595 242.000 C 255.978 242.000,256.750 241.640,257.309 241.200 C 257.869 240.760,258.708 240.400,259.176 240.400 C 259.643 240.400,260.129 240.130,260.255 239.800 C 260.387 239.456,260.985 239.200,261.655 239.200 C 262.326 239.200,262.923 238.944,263.055 238.600 C 263.182 238.270,263.688 238.000,264.181 238.000 C 264.673 238.000,265.402 237.640,265.800 237.200 C 266.198 236.760,266.862 236.400,267.275 236.400 C 267.687 236.400,268.129 236.130,268.255 235.800 C 268.382 235.470,268.894 235.200,269.394 235.200 C 269.893 235.200,270.526 234.930,270.800 234.600 C 271.074 234.270,271.506 234.000,271.760 234.000 C 272.014 234.000,272.530 233.640,272.907 233.200 C 273.284 232.760,273.845 232.400,274.153 232.400 C 274.462 232.400,274.818 232.130,274.945 231.800 C 275.071 231.470,275.451 231.200,275.787 231.200 C 276.124 231.200,276.400 230.930,276.400 230.600 C 276.400 230.270,276.564 230.000,276.764 230.000 C 277.317 230.000,280.400 227.904,280.400 227.529 C 280.400 227.348,280.571 227.200,280.779 227.200 C 281.330 227.200,283.200 225.388,283.200 224.854 C 283.200 224.604,283.470 224.400,283.800 224.400 C 284.130 224.400,284.400 224.130,284.400 223.800 C 284.400 223.470,284.625 223.197,284.900 223.193 C 285.510 223.185,287.200 221.458,287.200 220.844 C 287.200 220.600,287.470 220.400,287.800 220.400 C 288.130 220.400,288.400 220.130,288.400 219.800 C 288.400 219.470,288.625 219.197,288.900 219.193 C 289.510 219.185,291.200 217.458,291.200 216.844 C 291.200 216.600,291.470 216.400,291.800 216.400 C 292.130 216.400,292.400 216.130,292.400 215.800 C 292.400 215.470,292.548 215.200,292.729 215.200 C 293.104 215.200,295.200 212.117,295.200 211.564 C 295.200 211.364,295.470 211.200,295.800 211.200 C 296.200 211.200,296.400 210.800,296.400 210.000 C 296.400 209.200,296.200 208.800,295.800 208.800 C 295.470 208.800,295.200 208.530,295.200 208.200 C 295.200 207.870,294.951 207.600,294.647 207.600 C 294.342 207.600,293.999 207.240,293.884 206.800 C 293.769 206.360,293.388 206.000,293.037 206.000 C 292.687 206.000,292.400 205.730,292.400 205.400 C 292.400 205.070,292.130 204.800,291.800 204.800 C 291.470 204.800,291.200 204.530,291.200 204.200 C 291.200 203.870,290.951 203.600,290.647 203.600 C 290.342 203.600,289.999 203.240,289.884 202.800 C 289.769 202.360,289.388 202.000,289.037 202.000 C 288.687 202.000,288.400 201.730,288.400 201.400 C 288.400 201.070,288.130 200.800,287.800 200.800 C 287.470 200.800,287.200 200.530,287.200 200.200 C 287.200 199.870,286.951 199.600,286.647 199.600 C 286.342 199.600,285.999 199.240,285.884 198.800 C 285.769 198.360,285.388 198.000,285.037 198.000 C 284.687 198.000,284.400 197.730,284.400 197.400 C 284.400 197.070,284.130 196.800,283.800 196.800 C 283.470 196.800,283.200 196.600,283.200 196.355 C 283.200 196.110,282.030 194.774,280.600 193.385 C 279.170 191.997,278.000 190.766,278.000 190.649 C 278.000 190.532,277.595 190.004,277.100 189.476 C 276.605 188.947,275.210 187.410,274.000 186.060 C 271.787 183.591,270.955 183.130,270.562 184.155 C 270.445 184.460,269.851 184.810,269.242 184.932 C 268.633 185.053,267.546 185.704,266.825 186.377 C 266.105 187.049,265.374 187.600,265.200 187.600 C 265.027 187.600,264.782 187.870,264.655 188.200 C 264.529 188.530,264.054 188.800,263.600 188.800 C 263.146 188.800,262.671 189.070,262.545 189.400 C 262.418 189.730,262.070 190.000,261.771 190.000 C 261.473 190.000,261.035 190.360,260.800 190.800 C 260.565 191.240,260.127 191.600,259.829 191.600 C 259.530 191.600,259.182 191.870,259.055 192.200 C 258.929 192.530,258.454 192.800,258.000 192.800 C 257.546 192.800,257.071 193.070,256.945 193.400 C 256.818 193.730,256.492 194.000,256.219 194.000 C 255.947 194.000,255.398 194.360,255.000 194.800 C 254.602 195.240,254.028 195.600,253.725 195.600 C 253.423 195.600,253.071 195.870,252.945 196.200 C 252.818 196.530,252.396 196.800,252.006 196.800 C 251.617 196.800,251.074 197.070,250.800 197.400 C 250.526 197.730,250.048 198.000,249.738 198.000 C 249.429 198.000,249.076 198.259,248.954 198.576 C 248.833 198.892,248.223 199.263,247.600 199.400 C 246.977 199.537,246.367 199.908,246.246 200.224 C 246.124 200.541,245.564 200.800,245.000 200.800 C 244.436 200.800,243.871 201.070,243.745 201.400 C 243.618 201.730,243.219 202.001,242.857 202.003 C 242.496 202.004,241.660 202.363,241.000 202.800 C 240.340 203.237,239.417 203.596,238.949 203.597 C 238.481 203.599,237.874 203.870,237.600 204.200 C 237.326 204.530,236.578 204.800,235.938 204.800 C 235.273 204.800,234.676 205.057,234.545 205.400 C 234.392 205.797,233.765 206.000,232.689 206.000 C 231.741 206.000,230.760 206.275,230.336 206.658 C 229.935 207.020,228.661 207.405,227.504 207.513 C 226.335 207.621,225.258 207.951,225.080 208.254 C 224.520 209.210,222.983 208.895,222.380 207.700 C 222.074 207.095,221.504 206.278,221.112 205.884 C 220.721 205.491,220.400 204.816,220.400 204.384 C 220.400 203.953,220.130 203.600,219.800 203.600 C 219.470 203.600,219.200 203.253,219.200 202.829 C 219.200 202.404,218.930 201.787,218.600 201.457 C 218.270 201.127,218.000 200.704,218.000 200.517 C 218.000 200.331,217.640 199.870,217.200 199.493 C 216.760 199.116,216.400 198.455,216.400 198.024 C 216.400 197.593,216.175 197.096,215.900 196.920 C 215.283 196.525,214.527 195.351,213.955 193.900 C 213.717 193.295,213.269 192.800,212.961 192.800 C 212.652 192.800,212.400 192.552,212.400 192.249 C 212.400 191.946,212.130 191.474,211.800 191.200 C 211.470 190.926,211.200 190.395,211.200 190.021 C 211.200 189.646,210.570 188.814,209.800 188.172 C 209.030 187.530,208.400 186.861,208.400 186.686 C 208.400 186.216,206.762 183.962,205.500 182.697 C 204.895 182.090,204.400 181.415,204.400 181.197 C 204.400 180.978,204.130 180.800,203.800 180.800 C 203.470 180.800,203.200 180.530,203.200 180.200 C 203.200 179.870,202.951 179.600,202.647 179.600 C 202.342 179.600,201.999 179.240,201.884 178.800 C 201.724 178.188,201.338 178.000,200.241 178.000 C 199.240 178.000,198.656 178.242,198.307 178.800 " stroke="none" fill="#13101f" fill-rule="evenodd"></path><path id="path4" d="M170.093 105.200 C 170.093 105.970,170.175 106.285,170.276 105.900 C 170.376 105.515,170.376 104.885,170.276 104.500 C 170.175 104.115,170.093 104.430,170.093 105.200 " stroke="none" fill="#240024" fill-rule="evenodd"></path></g></svg>